<?xml version="1.0" standalone="no"?>
<!DOCTYPE svg PUBLIC "-//W3C//DTD SVG 20010904//EN"
 "http://www.w3.org/TR/2001/REC-SVG-20010904/DTD/svg10.dtd">
<svg version="1.0" xmlns="http://www.w3.org/2000/svg"
 width="1000.000000pt" height="571.000000pt" viewBox="0 0 1000.000000 571.000000"
 preserveAspectRatio="xMidYMid meet">

<g transform="translate(0.000000,571.000000) scale(0.100000,-0.100000)"
fill="#000000" stroke="none">
<path d="M0 5399 l1 -310 30 -11 c16 -6 28 -12 26 -14 -2 -3 -16 0 -31 5 l-26
10 0 -2539 0 -2540 239 0 240 0 4 23 4 22 2 -22 1 -23 824 0 824 0 51 56 c47
52 51 58 36 74 -18 20 -19 42 -3 58 15 15 51 15 66 0 10 -10 16 -8 31 7 10 11
80 88 156 170 76 83 166 179 199 215 34 36 99 107 144 158 l83 93 -2 72 c-2
83 -6 98 -23 91 -7 -3 -19 2 -26 11 -10 12 -10 18 0 30 7 9 19 14 27 11 7 -3
13 1 13 9 0 13 18 15 114 11 l113 -4 169 180 c204 219 168 179 299 323 60 66
126 138 147 160 31 33 38 47 38 83 l0 42 39 0 c38 0 45 6 180 152 93 101 141
160 141 174 0 16 7 24 23 26 25 3 177 163 177 185 0 7 6 13 14 13 7 0 35 24
61 52 27 29 76 82 110 118 34 36 103 111 154 168 84 93 96 102 129 103 33 1
34 2 12 9 -14 5 69 8 190 8 119 -1 197 -4 175 -8 l-40 -7 51 -2 c43 -1 55 -5
75 -30 13 -16 83 -91 154 -167 72 -76 152 -162 179 -191 27 -29 55 -53 62 -53
8 0 14 -6 14 -13 0 -7 35 -52 77 -100 55 -61 84 -87 100 -87 17 0 23 -6 23
-21 0 -22 65 -100 209 -251 67 -71 77 -78 112 -78 l39 0 0 -42 c0 -33 7 -50
28 -73 15 -16 103 -113 197 -215 93 -102 208 -225 256 -275 47 -49 106 -112
130 -138 l43 -49 108 4 108 3 -1 -74 -2 -73 -104 6 c-57 4 -112 10 -121 13
-15 5 -15 4 -2 -10 12 -12 40 -17 123 -19 l107 -2 0 -34 c0 -60 35 -99 42 -45
4 34 48 67 77 58 35 -11 61 -46 61 -81 0 -18 -4 -35 -9 -38 -4 -3 -11 -19 -14
-35 -4 -16 -13 -31 -22 -33 -11 -2 -5 -15 25 -49 21 -26 36 -50 32 -54 -4 -5
-2 -5 4 -2 7 4 31 -14 54 -41 24 -26 80 -86 124 -133 71 -75 122 -130 340
-366 l49 -53 319 0 c251 0 319 3 315 13 -8 22 13 47 39 47 19 0 29 -7 37 -30
l11 -30 708 0 708 0 0 259 c0 221 -2 260 -15 265 -19 7 -19 35 0 42 13 6 15
254 15 2179 l0 2174 -28 4 -27 4 27 2 27 1 1 390 0 390 -210 0 -210 0 0 -90 0
-90 -70 -35 c-91 -46 -103 -45 -20 2 36 20 68 41 72 47 4 6 8 46 8 88 l0 78
-919 0 -920 0 -81 -76 c-44 -43 -78 -79 -76 -82 3 -2 -17 -21 -43 -41 -27 -20
-131 -116 -232 -215 -151 -146 -179 -177 -154 -172 l30 6 -28 -16 c-28 -15
-28 -16 -26 -107 l2 -92 -44 -7 c-24 -4 -75 -5 -114 -2 l-70 5 -88 -85 c-405
-389 -486 -470 -480 -479 3 -6 1 -7 -5 -3 -6 4 -29 -10 -52 -30 -34 -31 -40
-42 -40 -75 0 -39 0 -39 -40 -39 -37 0 -48 -8 -179 -132 -94 -90 -139 -140
-140 -155 -1 -17 -7 -23 -23 -23 -15 0 -53 -30 -112 -87 -380 -373 -496 -478
-530 -480 -17 0 -50 -4 -73 -8 -32 -4 -43 -3 -43 7 0 10 -2 10 -8 1 -6 -9 -44
-11 -142 -8 -74 2 -144 5 -156 7 -23 3 -211 178 -515 476 -62 61 -102 92 -116
92 -16 0 -23 6 -23 20 0 11 -16 34 -35 51 -19 17 -32 36 -28 42 3 5 1 7 -4 4
-12 -7 -36 16 -28 26 3 4 2 5 -2 2 -3 -3 -48 33 -98 80 -81 74 -98 85 -129 85
-35 0 -36 1 -36 37 0 32 -8 44 -67 99 -46 42 -69 58 -71 49 -5 -20 -42 -19
-42 0 0 9 7 18 15 21 12 5 13 10 4 20 -6 8 -17 14 -24 14 -6 0 -16 9 -21 20
-5 11 -110 116 -234 235 l-225 215 -112 -4 -113 -5 -1 105 c-1 57 -2 107 -3
112 -2 9 -96 104 -251 251 -66 62 -172 165 -236 227 l-116 114 -490 0 -490 0
4 -22 c6 -34 -17 -56 -64 -61 -24 -2 -41 -1 -38 3 2 4 -9 20 -26 36 -27 25
-30 26 -27 9 2 -15 -2 -19 -17 -17 -31 5 -39 5 -55 1 -8 -2 -16 3 -16 11 -1 8
-2 20 -3 27 -1 9 -78 12 -311 13 l-310 0 1 -85 2 -85 64 -35 c34 -20 63 -38
63 -41 0 -2 -31 12 -70 31 l-70 35 0 90 0 90 -135 0 -134 0 24 -26 c20 -22 22
-29 12 -45 -17 -27 -43 -33 -78 -19 -40 17 -39 67 1 83 8 3 -13 6 -48 6 l-62
1 0 -311z m7724 229 c14 -20 14 -23 0 -31 -20 -11 -64 0 -64 16 0 17 20 37 36
37 7 0 20 -10 28 -22z m884 -14 c51 -35 -2 -93 -55 -59 -20 14 -22 19 -12 38
21 39 35 44 67 21z m-245 -6 c-14 -7 -31 -7 -50 -1 -25 9 -23 10 22 11 41 0
46 -1 28 -10z m-6551 -230 c38 -33 29 -37 -14 -7 -24 17 -34 19 -51 11 -12 -6
-33 -14 -47 -18 -23 -6 -21 -8 19 -20 25 -7 47 -13 50 -12 3 0 38 0 76 -1 49
-1 66 -4 55 -11 -10 -6 -11 -10 -2 -10 6 0 12 -4 12 -10 0 -5 -17 -7 -41 -4
-29 4 -39 3 -35 -5 4 -6 2 -11 -3 -11 -6 0 -11 5 -11 10 0 6 -7 10 -15 10 -20
0 -19 -13 3 -26 24 -15 127 -9 154 8 13 8 46 23 73 34 l50 19 -40 6 -40 6 38
2 c22 0 40 7 43 15 8 21 31 27 59 14 28 -13 30 -18 13 -37 -11 -11 -10 -14 1
-18 11 -5 11 -7 0 -14 -11 -8 -10 -12 5 -24 16 -12 17 -19 8 -37 -8 -18 -11
-19 -11 -5 -1 15 -12 22 -33 18 -5 0 -8 4 -8 11 0 8 -3 9 -10 2 -6 -6 -31 -8
-63 -3 -29 4 -56 3 -62 -3 -6 -6 -5 -8 5 -6 8 2 5 0 -7 -6 -31 -13 -29 -26 5
-26 15 0 34 -5 42 -10 11 -7 -3 -10 -46 -10 -46 0 -63 -4 -68 -15 -6 -18 -47
-20 -63 -4 -8 8 -20 8 -39 2 l-27 -9 37 -22 c20 -12 43 -22 51 -22 8 0 17 -4
20 -10 3 -5 25 -9 48 -9 23 1 34 3 25 6 -10 2 -18 11 -18 18 0 9 -6 12 -15 9
-10 -4 -15 0 -15 15 0 19 2 20 23 9 12 -7 26 -19 30 -25 4 -7 16 -13 27 -13
10 0 20 -5 22 -12 3 -7 24 -12 51 -13 26 0 47 -3 47 -7 0 -5 15 -8 33 -9 26 0
28 -2 12 -8 -11 -5 -26 -6 -32 -4 -7 3 -13 0 -13 -6 0 -10 17 -15 48 -14 7 1
11 -4 9 -11 -2 -6 -13 -9 -23 -8 -15 3 -17 1 -6 -9 17 -18 15 -29 -5 -30 -12
0 -8 -4 10 -11 16 -6 27 -17 27 -29 0 -11 7 -19 18 -20 12 0 9 -3 -8 -10 -14
-6 -95 -10 -180 -10 -146 0 -169 -7 -75 -23 29 -5 36 -4 25 3 -24 17 -7 13 36
-8 22 -11 56 -22 77 -26 33 -7 37 -5 31 11 -6 18 -5 17 9 -1 13 -16 18 -18 41
-7 30 13 34 6 9 -14 -17 -13 -17 -13 0 -14 24 0 22 -34 -6 -63 -20 -22 -23
-23 -37 -9 -13 14 -12 15 5 8 15 -5 17 -4 9 4 -8 8 -25 5 -62 -11 -46 -20 -50
-24 -34 -36 9 -8 11 -11 3 -7 -25 13 -79 11 -74 -2 6 -17 32 -26 57 -19 17 5
18 4 6 -4 -8 -6 -12 -11 -8 -11 3 0 14 -3 24 -7 13 -5 15 -3 9 8 -7 12 -6 11
9 -1 17 -13 17 -15 -10 -22 -19 -5 -33 -3 -44 6 -35 31 -60 38 -95 26 -19 -6
-35 -15 -35 -18 1 -17 102 -142 110 -137 6 3 7 -1 4 -9 -5 -12 0 -15 21 -14
20 2 25 7 22 20 -7 23 10 24 17 1 2 -10 4 -3 3 16 -2 26 3 35 19 41 25 10 50
-3 39 -19 -5 -9 -11 -9 -22 1 -15 12 -15 11 -2 -9 8 -13 16 -18 20 -12 4 7 12
4 23 -6 14 -15 16 -15 16 -1 0 9 -8 17 -17 17 -17 1 -17 2 0 6 9 2 17 9 17 14
0 6 -4 7 -10 4 -5 -3 -10 -1 -10 4 0 6 -7 11 -16 11 -8 0 -12 5 -9 10 4 7 13
6 27 -1 22 -12 22 -15 6 76 -2 13 4 20 17 23 l20 4 -20 -16 c-14 -11 -15 -15
-5 -14 12 2 15 -10 15 -65 0 -37 3 -67 7 -67 3 0 7 -47 7 -105 1 -102 1 -106
-18 -95 -11 5 -22 14 -25 19 -3 4 -22 7 -42 5 -20 -1 -34 0 -31 3 9 9 -33 44
-45 37 -6 -4 -8 -3 -5 4 12 18 -4 41 -26 39 -46 -2 -87 3 -87 12 0 4 18 12 40
17 l40 9 -54 78 c-29 43 -56 80 -59 83 -2 3 -21 -2 -41 -10 -47 -20 -48 -47 0
-69 20 -10 32 -22 28 -28 -3 -6 -9 -7 -13 -2 -3 4 -18 14 -33 20 -18 8 -28 20
-28 33 0 19 -4 18 -57 -12 -32 -18 -59 -36 -61 -40 -2 -4 -9 -8 -16 -8 -7 0
-21 -6 -31 -14 -18 -13 -17 -14 13 -30 32 -17 82 -22 82 -8 0 4 -7 18 -17 31
-9 13 -11 22 -5 20 6 -2 21 -20 34 -39 23 -33 27 -35 84 -36 63 -1 88 -9 79
-25 -3 -5 4 -19 16 -31 12 -13 18 -16 14 -8 -4 8 2 5 14 -8 12 -12 26 -20 31
-17 5 3 19 -4 30 -15 14 -14 28 -19 42 -14 13 4 18 2 14 -4 -4 -6 2 -8 16 -4
16 4 19 2 13 -8 -5 -8 -4 -11 3 -7 5 4 8 16 5 27 -7 26 1 25 26 -1 11 -12 26
-19 34 -16 7 3 14 -1 14 -8 0 -7 -7 -11 -16 -8 -13 4 -13 3 -2 -5 8 -6 20 -8
27 -5 10 4 14 -17 16 -89 3 -90 4 -93 26 -90 17 3 22 -2 22 -17 0 -23 -19 -28
-38 -9 -9 9 -12 9 -12 0 0 -8 -23 -3 -67 13 -37 13 -70 20 -73 16 -5 -9 -151
46 -160 60 -3 5 -24 11 -45 14 -22 2 -45 11 -50 18 -13 19 -53 31 -91 28 -20
-1 -34 4 -38 14 -3 8 -23 22 -46 31 -34 14 -40 21 -40 45 0 26 2 28 26 19 33
-13 38 -13 27 3 -14 17 -23 58 -12 51 5 -3 9 -11 9 -17 1 -19 68 -89 75 -77 3
5 1 10 -6 10 -8 0 -8 4 1 15 7 8 16 12 21 9 10 -6 49 13 49 25 0 5 -13 14 -30
21 -16 7 -30 16 -30 20 0 7 -92 60 -104 60 -4 0 -4 -12 -1 -27 4 -23 2 -22
-13 9 -9 20 -25 39 -35 42 -12 3 -17 12 -15 23 2 14 16 19 61 24 32 4 60 9 63
11 3 3 -2 25 -10 49 -8 25 -9 36 -3 26 32 -50 29 -49 73 -28 51 25 68 45 61
73 -9 36 6 53 33 38 26 -14 24 -9 -19 50 -14 19 -26 36 -26 37 -1 2 -33 5 -72
8 l-71 5 -16 -41 c-9 -22 -13 -45 -10 -51 4 -6 2 -8 -4 -4 -5 3 -12 0 -15 -6
-2 -7 -4 -1 -3 14 0 16 4 28 7 28 6 0 29 45 29 57 0 3 -9 3 -20 0 -11 -3 -20
-1 -20 4 0 5 11 11 25 15 13 3 29 12 36 20 6 8 19 14 29 14 10 0 23 7 30 15
11 13 7 15 -27 15 -21 0 -49 -7 -61 -16 -14 -10 -27 -12 -38 -6 -14 8 -14 10
0 24 8 9 12 18 9 22 -4 3 3 6 14 6 26 0 246 146 254 168 4 12 -4 23 -30 39
-33 19 -38 20 -64 6 -16 -8 -32 -12 -35 -9 -3 4 9 12 26 18 20 8 32 19 32 30
0 16 -11 18 -105 18 -63 0 -105 4 -105 10 0 6 42 10 106 10 80 0 105 3 102 13
-7 21 -80 39 -148 37 -35 0 -61 2 -58 6 4 4 3 15 -3 26 -6 11 -7 32 -4 49 7
33 27 37 82 17 27 -10 38 -10 53 0 11 7 33 12 50 12 l30 0 2 103 2 102 3 -100
c3 -99 4 -100 35 -127z m6306 215 c-10 -2 -26 -2 -35 0 -10 3 -2 5 17 5 19 0
27 -2 18 -5z m207 -8 c6 -2 -14 -4 -42 -4 l-53 -1 0 -85 c0 -76 2 -84 18 -78
15 5 15 4 -1 -8 -18 -14 -18 -15 1 -16 10 -1 39 -13 63 -28 24 -14 63 -34 87
-45 23 -11 42 -26 42 -35 0 -11 -14 -6 -54 20 -29 19 -66 37 -82 41 -16 4 -36
15 -45 25 -15 18 -17 18 -55 -1 -52 -27 -55 -25 -16 9 17 16 32 31 32 34 0 2
-15 11 -32 18 -18 7 -39 19 -46 26 -8 8 -20 9 -35 4 -12 -4 -38 -6 -57 -4 -23
2 -62 -7 -115 -27 -98 -38 -124 -46 -110 -33 6 5 50 25 98 43 85 32 88 34 65
47 -17 11 -18 13 -3 7 42 -14 65 -16 65 -5 0 6 -10 15 -22 20 -19 7 -14 10 30
16 56 7 85 -4 75 -30 -3 -9 6 -19 24 -26 15 -6 36 -15 46 -20 15 -8 17 -3 17
61 0 66 -1 70 -22 71 -21 0 -22 1 -3 8 17 7 106 4 130 -4z m-675 1 c0 -2 -7
-7 -16 -10 -8 -3 -12 -2 -9 4 6 10 25 14 25 6z m1131 -17 c11 -11 30 -24 41
-28 l22 -8 -22 -5 c-12 -4 -20 -2 -17 2 3 4 -13 6 -35 3 -31 -4 -41 -2 -46 11
-6 16 11 46 27 46 5 0 18 -9 30 -21z m-353 4 c-10 -2 -28 -2 -40 0 -13 2 -5 4
17 4 22 1 32 -1 23 -4z m479 -59 c-3 -3 -12 -4 -19 -1 -8 3 -5 6 6 6 11 1 17
-2 13 -5z m133 -34 c18 -12 2 -12 -25 0 -13 6 -15 9 -5 9 8 0 22 -4 30 -9z
m65 -20 c13 -5 14 -9 5 -9 -8 0 -24 4 -35 9 -13 5 -14 9 -5 9 8 0 24 -4 35 -9z
m-1371 -29 c24 -26 17 -62 -16 -81 -26 -14 -29 -14 -54 11 -23 24 -25 29 -14
50 23 44 56 51 84 20z m411 -2 c16 -16 -20 -10 -41 7 -18 14 -18 15 6 8 14 -3
29 -10 35 -15z m-7705 -87 l0 -88 38 4 c20 3 45 13 55 23 21 23 50 25 66 5 7
-8 40 -17 79 -20 123 -11 137 -13 175 -21 25 -5 42 -4 50 4 14 14 60 14 74 0
6 -6 16 -8 21 -5 16 10 222 14 222 5 0 -5 -12 -10 -27 -10 l-28 -1 30 -8 c19
-5 -15 -8 -93 -9 -99 -1 -124 -4 -128 -16 -8 -19 -41 -19 -74 0 -14 8 -49 14
-78 15 -34 0 -51 4 -47 10 5 7 -22 10 -82 8 -64 -2 -87 -6 -86 -15 2 -9 -13
-13 -50 -13 -52 -1 -52 -1 -24 -16 42 -23 32 -27 -13 -4 -21 11 -48 20 -59 20
-10 0 -22 8 -26 18 -12 27 -16 202 -5 202 6 0 10 -38 10 -88z m8555 78 c3 -5
1 -10 -4 -10 -6 0 -11 5 -11 10 0 6 2 10 4 10 3 0 8 -4 11 -10z m584 -37 c-1
-27 -4 -72 -7 -101 l-7 -52 -65 -30 c-36 -17 -57 -24 -46 -16 10 9 38 23 62
33 l44 18 1 85 c1 47 1 91 0 98 -1 6 3 12 9 12 5 0 10 -21 9 -47z m-1159 27
c-8 -5 -19 -10 -25 -10 -5 0 -3 5 5 10 8 5 20 10 25 10 6 0 3 -5 -5 -10z m-78
-14 c29 0 33 -2 21 -11 -13 -10 -11 -14 16 -25 17 -7 30 -15 27 -17 -4 -5
-126 53 -136 64 -3 4 4 2 15 -2 11 -5 36 -9 57 -9z m973 4 c13 -6 15 -9 5 -9
-8 0 -22 4 -30 9 -18 12 -2 12 25 0z m-1365 -30 c0 -5 -9 -10 -19 -10 -11 0
-22 -6 -24 -12 -4 -8 -6 -7 -6 4 -1 14 11 22 42 27 4 0 7 -3 7 -9z m298 -31
c-15 -8 -18 -24 -18 -84 0 -73 0 -74 -34 -94 -47 -30 -58 -26 -13 4 36 25 37
28 37 84 0 32 -2 60 -6 63 -3 3 -28 -3 -56 -14 -78 -29 -68 -14 14 20 73 30
108 40 76 21z m-6265 -6 c-13 -2 -33 -2 -45 0 -13 2 -3 4 22 4 25 0 35 -2 23
-4z m-993 -29 c0 -8 -5 -12 -10 -9 -6 4 -8 11 -5 16 9 14 15 11 15 -7z m8185
6 c3 -6 -1 -7 -9 -4 -18 7 -21 14 -7 14 6 0 13 -4 16 -10z m-8245 -26 c0 -2
-14 -4 -31 -4 -16 0 -28 4 -25 9 5 8 56 3 56 -5z m100 12 c0 -11 -19 -15 -25
-6 -3 5 1 10 9 10 9 0 16 -2 16 -4z m-190 -10 c0 -2 -7 -7 -16 -10 -8 -3 -12
-2 -9 4 6 10 25 14 25 6z m7175 -46 c-33 -16 -64 -29 -70 -29 -13 1 106 58
120 58 6 0 -17 -13 -50 -29z m-5852 -19 c11 -1 17 -7 14 -13 -2 -7 -10 -12
-16 -10 -10 2 -79 10 -106 12 -30 2 19 15 52 13 21 -1 46 -2 56 -2z m307 -32
c3 0 -5 -4 -18 -9 -26 -11 -52 -3 -52 15 0 11 8 11 32 4 18 -5 35 -9 38 -10z
m-1643 5 c-3 -3 -12 -4 -19 -1 -8 3 -5 6 6 6 11 1 17 -2 13 -5z m-40 -10 c-3
-3 -12 -4 -19 -1 -8 3 -5 6 6 6 11 1 17 -2 13 -5z m7073 -9 c-14 -8 -29 -14
-35 -14 -5 0 1 6 15 14 14 8 30 14 35 14 6 0 -1 -6 -15 -14z m-7153 -11 c-3
-3 -12 -4 -19 -1 -8 3 -5 6 6 6 11 1 17 -2 13 -5z m1756 -3 c4 -1 7 -5 7 -11
0 -14 -23 -12 -45 3 -19 15 -21 14 38 8z m6647 -34 c0 -6 -9 -2 -20 8 -11 10
-20 23 -20 28 0 6 9 2 20 -8 11 -10 20 -23 20 -28z m-7411 19 c-10 -9 -129
-66 -129 -61 0 6 111 64 124 65 5 0 7 -2 5 -4z m779 -53 c17 -12 26 -13 34 -5
7 7 18 8 27 3 9 -5 36 -12 61 -16 25 -5 39 -10 32 -13 -9 -3 -3 -14 20 -33
l33 -28 -42 -1 c-23 0 -45 -4 -48 -10 -4 -6 1 -7 11 -3 12 4 15 3 10 -5 -5 -8
0 -12 13 -12 12 0 21 6 21 13 0 8 3 8 9 -2 5 -8 18 -12 29 -9 11 3 26 2 33 -3
9 -6 2 -9 -22 -9 -20 0 -42 -7 -49 -15 -7 -8 -9 -15 -5 -15 4 0 1 -7 -6 -16
-12 -15 -11 -19 9 -32 12 -8 22 -19 22 -24 0 -5 -7 -2 -16 6 -18 18 -29 14
-36 -12 -5 -16 0 -18 33 -16 22 1 37 -2 33 -7 -8 -14 3 -11 20 7 21 20 21 41
1 24 -13 -11 -14 -10 -9 4 3 9 10 16 14 16 4 0 6 12 4 28 -2 15 1 9 8 -13 6
-22 15 -43 20 -46 5 -3 8 -10 7 -15 -1 -5 -1 -53 0 -106 1 -77 4 -98 15 -98
23 0 27 -28 5 -43 -19 -14 -20 -25 -19 -183 0 -93 1 -244 0 -336 l0 -166 -27
8 c-16 5 -54 16 -85 25 -32 9 -58 20 -58 24 0 5 -11 9 -24 9 -14 0 -32 7 -41
16 -17 16 -71 22 -91 8 -7 -4 -13 -16 -15 -27 -3 -14 -12 -20 -29 -20 -37 0
-35 39 2 43 l27 3 1 351 c0 192 2 354 5 358 3 5 1 11 -5 15 -5 3 -10 15 -10
26 0 19 -11 25 -24 12 -20 -20 -86 -4 -86 21 0 8 -7 22 -15 30 -12 12 -13 20
-5 35 5 11 10 29 10 40 0 15 9 22 35 27 19 3 46 3 60 0 18 -5 25 -2 26 9 4 41
15 54 39 48 11 -3 20 0 20 6 0 6 3 10 8 10 26 -4 42 3 42 20 0 19 -1 19 -51 0
-57 -22 -82 -18 -29 4 33 14 27 33 -6 20 -11 -4 -15 -3 -10 5 3 6 2 13 -3 16
-5 3 -9 28 -9 56 l0 50 27 -20 c14 -12 36 -28 49 -37z m5082 17 c0 -5 -4 -10
-10 -10 -5 0 -10 5 -10 10 0 6 5 10 10 10 6 0 10 -4 10 -10z m153 -4 c7 -18
-1 -26 -25 -26 -18 0 -25 20 -11 33 11 12 31 8 36 -7z m1243 -22 c13 -9 24
-12 24 -8 0 5 4 4 8 -1 4 -6 59 -33 122 -62 85 -38 123 -50 145 -47 23 4 35 0
54 -20 14 -14 32 -26 40 -27 20 0 -24 -20 -58 -26 -24 -4 -61 21 -61 41 0 6
-12 17 -27 23 -109 48 -157 69 -220 99 -40 18 -84 36 -98 40 -14 3 -27 10 -30
14 -8 13 74 -9 101 -26z m269 -92 c-4 -5 -88 86 -98 107 -5 9 16 -11 46 -44
30 -33 54 -61 52 -63z m-1790 98 c-3 -5 0 -10 7 -10 8 0 9 -3 2 -8 -18 -12
-44 -56 -43 -72 0 -10 2 -11 6 -2 2 6 14 12 26 12 15 0 18 3 9 8 -9 6 -5 12
14 23 21 10 28 11 31 2 3 -9 10 -9 31 0 15 6 30 16 34 22 5 6 8 6 8 0 0 -5 4
-4 9 4 5 7 14 10 21 6 15 -9 -51 -55 -79 -55 -17 0 -21 -6 -21 -34 0 -40 14
-53 36 -35 12 10 15 10 12 -1 -2 -7 13 -18 32 -25 42 -16 29 -19 -19 -5 -24 7
-39 6 -48 -1 -15 -13 -18 -43 -3 -34 6 3 10 1 10 -4 0 -6 -5 -11 -12 -11 -6 0
-8 -3 -5 -6 4 -4 13 -1 22 6 12 10 16 9 21 -4 3 -9 12 -16 20 -16 8 0 14 -7
14 -15 0 -8 5 -15 10 -15 6 0 10 -13 10 -30 0 -16 -4 -30 -10 -30 -5 0 -10 5
-10 10 0 7 -6 7 -19 0 -11 -5 -27 -7 -35 -4 -10 4 -18 0 -22 -10 -9 -23 5 -34
17 -16 8 11 9 10 4 -7 -5 -20 -2 -23 22 -25 15 0 33 -2 38 -3 6 -2 14 -3 19
-4 5 0 1 -10 -9 -21 -14 -16 -16 -23 -7 -32 19 -19 14 -33 -5 -16 -12 10 -25
13 -38 8 -28 -11 -59 -47 -46 -54 5 -4 8 -15 6 -26 -3 -13 0 -18 7 -14 7 5 9
1 5 -9 -3 -10 -2 -17 3 -17 9 0 14 14 11 33 0 4 3 7 9 7 6 0 10 -7 10 -15 0
-12 4 -13 19 -5 31 16 43 13 32 -8 -13 -24 1 -44 25 -37 13 4 12 2 -3 -6 -13
-7 -23 -19 -23 -26 0 -8 -10 -24 -22 -35 -13 -11 -18 -17 -11 -14 35 18 38 0
35 -209 l-3 -205 -44 0 c-24 0 -50 -6 -57 -13 -17 -17 -51 -30 -43 -17 3 6 -1
7 -9 4 -9 -3 -16 -11 -16 -16 0 -6 -7 -8 -15 -4 -8 3 -15 1 -15 -4 0 -9 -31
-21 -65 -26 -11 -1 -32 -5 -47 -9 l-28 -7 0 113 c-1 63 -1 180 -1 260 0 144 0
145 -22 145 -16 -1 -23 6 -25 23 -3 21 0 23 22 19 l26 -5 1 81 c1 44 1 92 1
106 -1 16 1 19 4 8 6 -20 26 -25 22 -7 -2 8 16 13 47 14 78 4 155 43 155 79 0
17 -12 21 -24 9 -10 -10 -78 -33 -99 -33 -11 0 -15 -4 -11 -12 4 -6 3 -8 -4
-5 -18 12 -41 -3 -34 -21 4 -14 3 -15 -9 -6 -8 6 -22 10 -31 9 -14 -3 -17 3
-15 30 1 18 5 31 8 29 7 -4 19 21 19 39 0 8 -3 7 -9 -2 -7 -10 -10 -10 -16 -1
-8 13 13 32 26 24 5 -2 6 4 4 15 -3 15 0 18 12 14 13 -5 15 -2 10 11 -4 9 -3
15 2 12 11 -7 45 80 37 93 -4 6 -20 4 -42 -5 -20 -8 -41 -13 -47 -10 -7 2 -3
5 8 5 15 1 17 3 6 10 -10 6 -2 11 27 16 28 4 43 13 47 26 4 10 16 19 28 20 20
1 20 2 -3 8 l-25 7 23 12 c12 7 22 9 22 5 0 -4 9 7 20 25 11 17 22 32 25 32 4
0 3 -4 0 -10z m-4721 -9 c9 -14 -4 -41 -19 -41 -21 0 -36 25 -23 38 14 14 35
16 42 3z m4826 5 c0 -2 -11 -11 -25 -20 -21 -14 -25 -14 -25 -2 0 8 10 17 23
19 12 2 23 5 25 6 1 0 2 -1 2 -3z m2070 -32 c0 -2 -9 0 -20 6 -11 6 -20 13
-20 16 0 2 9 0 20 -6 11 -6 20 -13 20 -16z m-9439 -6 l26 -12 -25 -23 c-29
-27 -36 -28 -55 -8 -13 12 -15 29 -8 53 2 6 40 1 62 -10z m950 -25 c13 -16 12
-17 -3 -4 -10 7 -18 15 -18 17 0 8 8 3 21 -13z m6474 7 c3 -5 1 -10 -4 -10 -6
0 -11 5 -11 10 0 6 2 10 4 10 3 0 8 -4 11 -10z m265 -10 c0 -5 -2 -10 -4 -10
-3 0 -8 5 -11 10 -3 6 -1 10 4 10 6 0 11 -4 11 -10z m365 0 c3 -5 1 -10 -4
-10 -6 0 -11 5 -11 10 0 6 2 10 4 10 3 0 8 -4 11 -10z m1699 -4 c-27 -7 -75
-13 -105 -13 l-54 -1 70 13 c39 7 86 13 105 13 31 0 29 -1 -16 -12z m-9656 -3
c-10 -2 -28 -2 -40 0 -13 2 -5 4 17 4 22 1 32 -1 23 -4z m9450 -13 c13 0 20
-4 17 -10 -9 -14 -20 -12 -42 8 -10 9 -14 14 -9 10 6 -5 21 -8 34 -8z m-9355
3 c-13 -2 -35 -2 -50 0 -16 2 -5 4 22 4 28 0 40 -2 28 -4z m162 -11 c41 -4 45
-7 25 -12 -14 -4 -35 -3 -48 2 -57 20 -62 15 -62 -72 0 -77 1 -80 23 -80 13 0
27 -4 32 -9 6 -4 41 -2 80 5 89 16 136 18 115 4 -12 -8 -9 -10 12 -10 29 0 46
15 26 23 -7 3 2 6 19 6 27 1 34 -4 39 -23 3 -14 3 -30 -2 -37 -5 -9 -1 -11 14
-7 14 4 20 2 15 -5 -4 -7 0 -8 12 -3 10 4 21 3 24 -2 3 -4 28 -18 55 -31 69
-32 51 -36 -25 -5 -35 15 -81 33 -101 41 -20 9 -45 12 -55 9 -9 -4 -14 -4 -10
0 8 8 -73 33 -110 34 -13 0 -23 -4 -23 -10 0 -5 -13 -10 -30 -10 -35 0 -81
-20 -74 -31 3 -5 0 -9 -5 -9 -6 0 -11 5 -11 10 0 6 -4 10 -10 10 -5 0 -10 -13
-10 -29 0 -27 5 -31 66 -51 36 -12 63 -24 61 -27 -3 -2 -35 6 -71 19 -47 16
-66 28 -66 40 0 10 -8 19 -17 19 -17 1 -17 2 0 6 29 8 19 31 -19 43 -30 10
-34 14 -20 22 16 9 23 38 9 38 -5 0 -19 10 -33 21 l-25 21 28 -16 c15 -9 38
-23 52 -32 l25 -16 0 76 c0 65 -2 76 -17 77 -16 0 -15 2 2 9 11 5 29 7 40 4
11 -3 43 -8 70 -12z m7062 12 c-3 -3 -12 -4 -19 -1 -8 3 -5 6 6 6 11 1 17 -2
13 -5z m298 -36 c17 -15 37 -28 45 -28 9 0 23 -9 33 -20 9 -11 24 -20 33 -20
10 0 14 -5 10 -15 -3 -10 1 -18 12 -22 9 -4 26 -15 36 -25 11 -10 23 -18 27
-18 5 0 20 -11 34 -24 16 -15 57 -32 113 -46 l87 -21 14 20 c17 27 48 27 56 1
4 -13 16 -20 33 -21 15 -1 20 -3 10 -6 -26 -7 -29 -30 -5 -37 12 -3 18 -8 15
-11 -3 -4 -16 -1 -28 5 -12 6 -33 9 -46 6 -15 -4 -33 -1 -47 9 -24 17 -82 21
-72 5 3 -6 16 -8 28 -6 12 1 16 1 10 -1 -7 -3 -13 -9 -13 -15 0 -5 -7 -8 -15
-5 -8 4 -17 2 -20 -2 -2 -5 6 -11 20 -13 13 -3 22 -1 19 3 -9 15 10 10 41 -11
17 -11 39 -20 50 -21 11 0 14 -3 8 -6 -23 -9 -14 -18 37 -38 60 -23 47 -37
-27 -28 -38 4 -53 2 -53 -6 0 -7 -5 -9 -12 -5 -14 9 -233 16 -225 7 8 -7 71
-12 234 -17 73 -2 137 -7 142 -10 5 -4 22 -1 37 6 22 10 28 10 32 0 2 -6 22
-13 45 -14 41 -1 41 -1 7 -5 -19 -3 -42 -11 -51 -19 -13 -12 -18 -11 -37 2
-23 16 -41 17 -322 30 -188 9 -208 9 -270 0 -25 -3 -54 -7 -65 -8 -14 -2 -20
2 -19 15 1 12 -6 17 -25 18 -30 1 -21 5 32 14 24 4 35 10 31 17 -4 7 -3 8 4 4
12 -7 262 63 262 74 0 3 -23 13 -50 22 -51 17 -107 11 -138 -14 -7 -6 -15 -8
-18 -5 -4 3 -28 -5 -54 -18 -42 -21 -48 -22 -45 -7 2 9 4 21 4 25 1 5 5 6 10
3 12 -8 121 41 121 54 0 5 0 13 -1 16 -2 17 27 21 48 7 22 -14 27 -14 64 2 43
20 37 35 -13 35 -15 0 -29 4 -32 8 -2 4 -50 19 -105 32 -56 14 -101 29 -101
34 0 4 7 5 15 2 9 -3 42 -13 75 -21 49 -13 63 -13 80 -3 25 16 21 32 -8 36
-12 2 -22 8 -22 13 0 6 -15 10 -32 9 -58 -3 -64 -1 -42 15 18 14 17 16 -23 55
-24 23 -43 43 -43 45 0 10 38 -11 65 -37z m1685 -107 l0 -149 -69 -21 c-38
-12 -83 -21 -101 -21 -17 0 -29 -4 -25 -9 7 -12 -31 -25 -46 -15 -8 4 -9 3 -5
-4 4 -7 -3 -14 -19 -18 -13 -3 -22 -10 -19 -15 3 -5 -4 -9 -14 -9 -11 0 -25
-7 -32 -15 -11 -13 -8 -14 21 -10 19 2 9 -2 -21 -10 -32 -9 -71 -12 -94 -9
-27 4 -36 3 -32 -5 5 -7 1 -9 -8 -5 -9 3 -16 2 -16 -4 0 -12 85 -25 182 -26
43 -1 78 -4 78 -8 0 -5 0 -12 0 -18 0 -13 -33 -13 -45 -1 -13 12 -251 22 -334
14 -54 -5 -61 -8 -47 -19 15 -10 12 -12 -21 -9 -21 1 -51 7 -66 14 -16 6 -70
12 -120 13 l-92 2 76 5 c63 5 76 9 74 22 -2 12 9 18 44 23 25 4 68 10 95 15
45 8 52 6 73 -15 13 -13 23 -19 23 -14 0 5 -7 15 -15 24 -19 19 -19 27 0 20 8
-4 32 -3 51 1 33 6 35 8 22 22 -12 12 -14 23 -6 55 5 23 7 46 5 51 -4 12 49
42 106 59 20 6 37 16 37 22 0 6 18 11 40 11 37 1 39 0 18 -11 -21 -11 -21 -12
13 -29 18 -10 45 -21 59 -25 25 -7 24 -7 -11 -22 -41 -18 -56 -35 -42 -49 13
-13 85 12 79 28 -4 10 1 12 18 7 24 -6 106 12 106 23 0 4 -7 15 -17 25 -23 25
-11 32 15 8 12 -11 28 -20 37 -20 8 0 15 -4 15 -10 0 -5 5 -10 10 -10 16 0 13
277 -2 283 -8 3 -6 6 5 6 15 1 17 -12 17 -148z m-1345 49 l-7 -90 48 -21 c27
-12 44 -23 37 -26 -6 -2 -29 5 -50 15 -34 18 -42 18 -63 6 -36 -19 -49 -17
-21 5 l23 18 -38 16 c-22 9 -31 16 -21 16 10 1 31 -6 47 -14 l30 -16 0 91 c0
59 4 90 11 90 8 0 9 -27 4 -90z m-7572 63 c-13 -2 -33 -2 -45 0 -13 2 -3 4 22
4 25 0 35 -2 23 -4z m-363 -49 c0 -3 -13 4 -30 16 -16 12 -30 24 -30 26 0 3
14 -4 30 -16 17 -12 30 -24 30 -26z m458 39 c-10 -2 -28 -2 -40 0 -13 2 -5 4
17 4 22 1 32 -1 23 -4z m432 -3 c0 -5 -2 -10 -4 -10 -3 0 -8 5 -11 10 -3 6 -1
10 4 10 6 0 11 -4 11 -10z m1137 -5 c2 -6 -3 -20 -11 -30 -13 -17 -18 -18 -35
-7 -16 9 -21 9 -21 0 0 -6 -2 -9 -5 -6 -3 3 0 17 6 32 10 20 19 26 38 24 13
-2 26 -8 28 -13z m7527 -4 c17 -19 17 -20 -11 -34 -33 -18 -63 -7 -63 23 0 33
48 40 74 11z m-8987 3 c-3 -3 -12 -4 -19 -1 -8 3 -5 6 6 6 11 1 17 -2 13 -5z
m86 -11 c-13 -2 -33 -2 -45 0 -13 2 -3 4 22 4 25 0 35 -2 23 -4z m307 -19 c0
-34 -52 -59 -63 -30 -4 11 -16 11 -74 0 -37 -7 -81 -13 -98 -12 -16 0 8 7 55
15 46 7 98 22 114 33 22 13 35 16 48 9 10 -5 18 -12 18 -15z m-540 -8 c6 -17
25 -28 69 -42 34 -10 61 -22 61 -27 0 -10 -43 1 -87 24 -21 10 -50 19 -65 19
-16 0 -31 7 -34 15 -4 8 -12 15 -19 15 -8 0 -16 3 -18 8 -3 4 15 8 39 9 39 1
46 -2 54 -21z m333 17 c-13 -2 -33 -2 -45 0 -13 2 -3 4 22 4 25 0 35 -2 23 -4z
m90 -10 c-13 -2 -33 -2 -45 0 -13 2 -3 4 22 4 25 0 35 -2 23 -4z m334 1 c-3
-3 -12 -4 -19 -1 -8 3 -5 6 6 6 11 1 17 -2 13 -5z m40 0 c-3 -3 -12 -4 -19 -1
-8 3 -5 6 6 6 11 1 17 -2 13 -5z m8246 -1 c-7 -2 -19 -2 -25 0 -7 3 -2 5 12 5
14 0 19 -2 13 -5z m-8346 -9 c-3 -3 -12 -4 -19 -1 -8 3 -5 6 6 6 11 1 17 -2
13 -5z m6640 0 c-3 -3 -12 -4 -19 -1 -8 3 -5 6 6 6 11 1 17 -2 13 -5z m1636
-1 c-7 -2 -19 -2 -25 0 -7 3 -2 5 12 5 14 0 19 -2 13 -5z m-70 -10 c-7 -2 -19
-2 -25 0 -7 3 -2 5 12 5 14 0 19 -2 13 -5z m-78 -13 c-11 -5 -36 -8 -55 -8
l-35 1 40 7 c57 10 74 10 50 0z m-1445 -15 c-7 -8 -20 -15 -29 -15 -13 1 -13
3 3 15 26 19 42 19 26 0z m1890 11 c0 -6 -123 -47 -127 -42 -3 2 13 9 34 16
21 7 42 16 48 21 9 9 45 13 45 5z m-9012 -13 c-10 -2 -26 -2 -35 0 -10 3 -2 5
17 5 19 0 27 -2 18 -5z m211 3 c-2 -2 -33 -6 -69 -9 -41 -3 -54 -2 -35 3 31 8
112 13 104 6z m249 -4 c15 -10 5 -42 -13 -42 -18 0 -28 17 -21 35 6 17 15 18
34 7z m-530 -9 c-10 -2 -26 -2 -35 0 -10 3 -2 5 17 5 19 0 27 -2 18 -5z m8477
-7 c12 -12 12 -15 -5 -19 -12 -3 -17 0 -13 8 3 8 -5 15 -19 18 l-23 4 23 2
c13 0 30 -5 37 -13z m-8352 -3 c-7 -2 -19 -2 -25 0 -7 3 -2 5 12 5 14 0 19 -2
13 -5z m8260 0 c-7 -2 -19 -2 -25 0 -7 3 -2 5 12 5 14 0 19 -2 13 -5z m-9095
-10 c-10 -2 -26 -2 -35 0 -10 3 -2 5 17 5 19 0 27 -2 18 -5z m775 0 c-7 -2
-21 -2 -30 0 -10 3 -4 5 12 5 17 0 24 -2 18 -5z m8245 0 c-16 -2 -28 -8 -28
-13 0 -5 -7 -7 -15 -4 -8 3 -27 2 -42 -4 -16 -5 -37 -6 -48 -1 -17 6 -15 8 10
9 17 1 39 5 50 10 11 5 38 8 60 8 29 -1 32 -2 13 -5z m-8945 -10 c-7 -2 -21
-2 -30 0 -10 3 -4 5 12 5 17 0 24 -2 18 -5z m638 0 c-10 -4 -8 -9 10 -20 16
-9 17 -12 4 -7 -11 4 -42 10 -70 12 -41 4 -46 6 -25 13 29 8 102 10 81 2z
m8935 -2 c-3 -5 -22 -11 -41 -13 -36 -4 -36 6 0 15 34 8 46 7 41 -2z m-9503
-8 c-7 -2 -21 -2 -30 0 -10 3 -4 5 12 5 17 0 24 -2 18 -5z m2547 -13 c0 -13
-7 -20 -20 -20 -13 0 -20 7 -20 20 0 13 7 20 20 20 13 0 20 -7 20 -20z m6539
10 c10 -5 21 -16 25 -25 4 -12 2 -13 -13 -6 -20 11 -47 41 -37 41 4 0 15 -4
25 -10z m-386 -7 c-7 -2 -21 -2 -30 0 -10 3 -4 5 12 5 17 0 24 -2 18 -5z m-70
-10 c-7 -2 -19 -2 -25 0 -7 3 -2 5 12 5 14 0 19 -2 13 -5z m-8306 -9 c-3 -3
-12 -4 -19 -1 -8 3 -5 6 6 6 11 1 17 -2 13 -5z m8246 -1 c-7 -2 -19 -2 -25 0
-7 3 -2 5 12 5 14 0 19 -2 13 -5z m822 -12 c0 -8 -8 -19 -17 -25 -22 -13 -44
5 -34 29 7 20 51 16 51 -4z m-9340 -1 c-11 -5 -27 -9 -35 -9 -9 0 -8 4 5 9 11
5 27 9 35 9 9 0 8 -4 -5 -9z m200 2 c-25 -3 -4 -14 114 -58 79 -30 152 -54
161 -54 10 0 34 -7 55 -16 21 -8 55 -18 77 -20 l39 -5 -17 25 c-9 14 -19 24
-23 22 -4 -3 -13 4 -19 15 -13 20 -12 20 25 1 27 -14 45 -17 60 -11 13 4 22 5
22 1 -6 -38 44 -44 98 -11 40 25 64 20 56 -11 -4 -16 -12 -21 -27 -18 -12 3
-30 -4 -41 -15 -20 -20 -20 -20 0 -12 45 17 54 16 65 -4 9 -17 8 -22 -5 -27
-8 -3 -12 -10 -9 -15 7 -13 3 -12 -45 12 -36 17 -45 18 -52 7 -6 -9 1 -17 24
-26 38 -15 100 -46 72 -36 -11 4 -32 8 -47 8 -14 1 -24 4 -22 8 2 3 -16 13
-40 21 -43 15 -44 15 -80 -15 -24 -19 -42 -27 -55 -23 -28 9 -16 45 15 45 13
0 24 4 24 10 0 5 8 7 18 5 9 -3 2 2 -16 10 -26 12 -41 13 -70 5 -20 -5 -46
-10 -57 -9 -12 0 -6 5 14 11 43 12 24 29 -24 21 -26 -4 -33 -1 -37 14 -6 21
-191 99 -210 87 -6 -4 -8 -3 -5 3 7 11 -65 43 -96 43 -9 0 -17 4 -17 8 0 5 24
9 53 9 28 0 39 -2 22 -5z m8242 2 c-3 -3 -12 -4 -19 -1 -8 3 -5 6 6 6 11 1 17
-2 13 -5z m-8142 -24 c-3 -5 -12 -10 -18 -10 -7 0 -6 4 3 10 19 12 23 12 15 0z
m1448 -28 c-10 -10 -24 -17 -31 -14 -8 3 -10 -1 -6 -12 6 -16 -6 -22 -19 -10
-10 10 15 42 29 37 6 -2 15 0 19 6 3 6 10 11 16 11 5 0 1 -8 -8 -18z m5787
-24 c0 -19 -16 -5 -17 14 -2 18 0 20 7 8 5 -8 10 -18 10 -22z m-40 2 c-8 -5
-17 -7 -19 -4 -3 3 1 9 9 14 8 5 17 7 19 4 3 -3 -1 -9 -9 -14z m1890 -30 c0
-5 24 -11 53 -12 l52 -1 -45 -4 c-25 -3 -49 -8 -54 -14 -24 -23 -64 -3 -52 26
6 17 46 21 46 5z m-7665 -10 c-3 -5 -11 -10 -16 -10 -6 0 -7 5 -4 10 3 6 11
10 16 10 6 0 7 -4 4 -10z m5814 -23 c-2 -1 -25 -20 -51 -41 -27 -20 -48 -33
-48 -27 0 12 92 82 99 75 2 -2 2 -5 0 -7z m1689 -2 c-2 -5 -11 -11 -22 -12
-16 -3 -17 -1 -6 12 14 16 34 16 28 0z m95 8 c-7 -2 -19 -2 -25 0 -7 3 -2 5
12 5 14 0 19 -2 13 -5z m-7603 -7 c0 -3 -4 -8 -10 -11 -5 -3 -10 -1 -10 4 0 6
5 11 10 11 6 0 10 -2 10 -4z m4950 -21 c0 -21 -19 -28 -36 -15 -10 9 -11 16
-3 26 12 15 39 8 39 -11z m2447 9 c-3 -3 -12 -4 -19 -1 -8 3 -5 6 6 6 11 1 17
-2 13 -5z m-6286 -65 c60 -49 79 -59 99 -54 70 17 76 17 108 -10 18 -15 32
-33 32 -40 0 -7 5 -15 12 -17 7 -3 8 -9 3 -18 -19 -31 -12 -55 26 -88 l39 -34
0 -349 c0 -330 -1 -349 -17 -339 -10 6 -36 16 -58 24 l-40 13 -3 342 c-2 294
-4 341 -17 341 -8 0 -15 -4 -15 -9 0 -6 -12 -3 -27 5 -55 28 -54 40 -52 -308
l2 -323 -26 3 c-22 2 -26 -2 -30 -30 l-4 -33 -1 37 c-2 30 -7 38 -29 46 -16 5
-36 13 -45 17 -15 6 -18 1 -19 -26 -1 -31 -2 -30 -10 11 -7 42 -12 900 -5 900
2 0 36 -27 77 -61z m3656 -50 c-3 -109 -3 -110 22 -125 23 -13 23 -15 4 -11
-15 3 -22 0 -22 -12 -13 -384 -13 -501 3 -507 20 -8 21 -38 1 -54 -8 -7 -15
-20 -15 -30 0 -13 -19 -26 -65 -44 -36 -14 -72 -26 -80 -26 -13 0 -15 38 -15
276 0 249 -2 275 -16 264 -12 -11 -18 -11 -31 2 -20 21 -7 41 23 35 23 -4 24
-2 24 55 0 32 -5 67 -12 78 -10 16 -9 22 10 38 12 10 20 22 17 26 -3 3 1 2 7
-4 7 -5 17 -10 23 -10 5 1 0 9 -13 20 -22 19 -22 19 -3 30 11 5 46 33 77 60
31 28 59 50 61 50 2 0 2 -50 0 -111z m-6684 87 c7 -18 -1 -26 -25 -26 -18 0
-25 20 -11 33 11 12 31 8 36 -7z m270 7 c-9 -3 -13 -34 -14 -96 -1 -51 -4 -80
-6 -66 -3 22 -8 25 -30 21 -20 -4 -24 -1 -21 14 2 12 12 19 26 18 20 -1 22 4
22 58 0 49 3 58 18 57 10 0 12 -3 5 -6z m7974 1 c-3 -3 -12 -4 -19 -1 -8 3 -5
6 6 6 11 1 17 -2 13 -5z m1140 -136 c-2 -29 -3 -8 -3 47 0 55 1 79 3 53 2 -26
2 -71 0 -100z m-1863 106 c23 -9 20 -44 -3 -44 -23 0 -35 15 -27 35 6 17 8 17
30 9z m793 -30 c-3 -3 -12 -4 -19 -1 -8 3 -5 6 6 6 11 1 17 -2 13 -5z m-7557
-14 c0 -5 -5 -10 -11 -10 -5 0 -7 5 -4 10 3 6 8 10 11 10 2 0 4 -4 4 -10z
m7427 4 c-3 -3 -12 -4 -19 -1 -8 3 -5 6 6 6 11 1 17 -2 13 -5z m378 -4 c13 -6
15 -9 5 -9 -8 0 -22 4 -30 9 -18 12 -2 12 25 0z m503 -7 c-10 -2 -28 -2 -40 0
-13 2 -5 4 17 4 22 1 32 -1 23 -4z m-6311 -36 c-2 -7 -11 -13 -20 -15 -12 -3
-17 4 -17 23 0 23 2 25 21 15 11 -6 18 -17 16 -23z m-2334 17 c9 -10 -4 -34
-18 -34 -17 0 -28 17 -20 30 7 11 28 13 38 4z m7512 -4 c-7 -12 -105 -63 -105
-55 0 6 92 65 103 65 5 0 5 -5 2 -10z m-251 -13 c3 3 6 -1 6 -9 0 -13 14 -24
40 -31 3 0 14 -9 24 -19 11 -10 25 -18 30 -18 6 0 -2 -9 -17 -19 -21 -13 -25
-20 -15 -25 10 -4 9 -5 -2 -5 -34 3 -44 -1 -34 -11 7 -7 22 -5 48 5 21 9 35
11 31 6 -7 -13 -3 -13 20 -5 13 6 14 9 3 16 -9 6 -5 7 10 3 14 -4 43 0 69 10
24 9 47 14 50 11 3 -3 0 -8 -8 -10 -75 -27 -76 -27 -51 -37 24 -9 75 8 66 22
-3 5 3 8 13 7 49 -4 63 2 63 27 0 22 -3 24 -19 15 -30 -16 -49 -11 -21 5 36
21 50 18 50 -9 l0 -24 77 29 c42 16 79 27 81 25 2 -2 -21 -13 -50 -24 -100
-38 -108 -43 -108 -73 l0 -28 88 5 c48 3 92 7 99 9 7 2 15 0 18 -5 3 -4 -19
-16 -47 -26 -66 -23 -59 -21 -113 -23 -41 -1 -45 -3 -45 -26 0 -18 -7 -28 -26
-36 -15 -5 -29 -7 -32 -5 -2 3 7 8 22 12 18 4 26 13 26 29 0 20 -4 22 -59 21
-56 -1 -102 -16 -51 -16 23 0 23 0 4 -14 -16 -13 -17 -15 -3 -21 25 -10 18
-33 -14 -45 -17 -5 -33 -8 -35 -5 -3 3 1 5 9 5 10 1 9 4 -4 11 -21 13 -60 2
-51 -14 3 -7 -1 -4 -10 7 -9 12 -23 17 -36 13 -11 -3 -18 -2 -15 3 3 4 -4 10
-15 13 -11 3 -18 1 -14 -4 3 -5 -1 -9 -8 -9 -7 -1 0 -8 15 -16 20 -11 32 -12
41 -5 9 7 17 4 30 -10 17 -20 17 -21 -5 -14 -14 5 -19 4 -15 -4 5 -7 -2 -11
-19 -11 -14 0 -50 -9 -80 -19 l-54 -19 -3 61 c-4 91 32 158 77 141 8 -4 15
-10 15 -15 0 -13 -18 -11 -22 2 -6 18 -38 -2 -37 -25 0 -11 3 -15 6 -8 2 6 12
12 21 12 22 0 82 23 82 31 0 4 -10 5 -22 1 -14 -3 -19 -2 -14 6 4 7 4 12 -1
13 -48 7 -80 5 -92 -4 -11 -10 -13 -9 -9 3 2 8 28 28 56 44 l52 30 -31 13
c-17 7 -28 17 -24 23 4 6 3 10 -2 9 -19 -3 -34 2 -29 10 3 5 -1 11 -9 15 -8 3
-15 12 -15 21 0 12 4 13 19 6 10 -6 21 -7 25 -4z m56 -11 c0 -3 -4 -8 -10 -11
-5 -3 -10 -1 -10 4 0 6 5 11 10 11 6 0 10 -2 10 -4z m-6462 -30 c2 -10 -1 -23
-6 -28 -13 -13 -52 0 -52 18 0 8 -6 14 -12 15 -7 1 -2 5 12 9 36 12 54 7 58
-14z m6962 14 c-8 -5 -19 -10 -25 -10 -5 0 -3 5 5 10 8 5 20 10 25 10 6 0 3
-5 -5 -10z m380 -5 c0 -8 -7 -15 -15 -15 -13 0 -14 3 -3 15 16 18 18 18 18 0z
m-6795 -4 c3 -5 2 -12 -3 -15 -5 -3 -9 1 -9 9 0 17 3 19 12 6z m1044 -55 c-5
-6 -10 -89 -11 -185 l-2 -176 -6 195 c-6 211 -4 236 16 199 8 -15 9 -28 3 -33z
m3938 -36 c15 0 15 -1 0 -12 -14 -11 -17 -37 -20 -163 l-3 -150 -2 163 c-1
121 -5 162 -14 163 -10 0 -10 2 0 6 6 2 13 21 14 41 1 36 2 36 5 -5 3 -32 9
-43 20 -43z m-4997 46 c-7 -7 -13 -7 -20 0 -6 6 -3 10 10 10 13 0 16 -4 10
-10z m-1852 -4 c17 -12 4 -42 -18 -42 -22 0 -35 30 -18 42 7 4 15 8 18 8 3 0
11 -4 18 -8z m8527 -12 c0 -8 -10 -16 -22 -18 -22 -3 -32 16 -16 32 12 11 38
2 38 -14z m-2080 -728 c-4 -12 -42 -31 -93 -47 l-23 -7 2 345 3 344 55 47 56
46 3 -357 c1 -197 0 -364 -3 -371z m3379 712 c13 -33 6 -54 -19 -60 -14 -3
-32 -4 -40 -1 -21 9 -31 57 -14 68 23 14 66 10 73 -7z m-7906 -2 c8 -6 2 -9
-18 -9 -20 0 -26 3 -18 9 7 4 15 8 18 8 3 0 11 -4 18 -8z m6698 -23 c10 -17
-13 -36 -27 -22 -12 12 -4 33 11 33 5 0 12 -5 16 -11z m-1624 -26 c-25 -25
-47 -29 -57 -13 -14 23 4 39 42 37 l38 -1 -23 -23z m1373 -3 c0 -8 -10 -16
-22 -18 -22 -3 -32 16 -16 32 12 11 38 2 38 -14z m786 -25 c5 4 33 3 62 -1 29
-4 46 -9 40 -11 -7 -3 -13 -11 -13 -19 0 -8 -3 -14 -7 -15 -57 -6 -68 -3 -102
30 -24 22 -28 30 -13 22 12 -7 27 -9 33 -6z m-2143 -38 c2 -10 -3 -17 -12 -17
-10 0 -16 9 -16 21 0 24 23 21 28 -4z m-4162 -8 c10 -17 -13 -36 -27 -22 -12
12 -4 33 11 33 5 0 12 -5 16 -11z m4734 -4 c0 -8 -9 -15 -20 -15 -11 0 -20 7
-20 15 0 8 9 15 20 15 11 0 20 -7 20 -15z m1328 -22 c5 -17 -26 -29 -40 -15
-6 6 -7 15 -3 22 9 14 37 9 43 -7z m-218 -19 c0 -17 -26 -19 -36 -3 -7 12 15
31 28 23 4 -3 8 -12 8 -20z m-5131 -347 c-1 -166 -5 -315 -9 -332 l-8 -30 -1
28 c-1 22 -8 30 -31 38 l-29 11 -3 291 c-2 161 -2 307 0 325 l3 33 40 -32 39
-31 -1 -301z m2681 34 l0 -319 -24 -6 c-13 -3 -31 -9 -40 -12 -14 -6 -16 24
-16 297 l0 304 32 27 c18 15 36 28 41 28 4 0 7 -144 7 -319z m1896 308 c10
-17 -13 -36 -27 -22 -12 12 -4 33 11 33 5 0 12 -5 16 -11z m-5931 -29 c0 -8
-10 -16 -22 -18 -22 -3 -32 16 -16 32 12 11 38 2 38 -14z m-558 -42 c-3 -7 -5
-2 -5 12 0 14 2 19 5 13 2 -7 2 -19 0 -25z m6430 0 c-3 -7 -5 -2 -5 12 0 14 2
19 5 13 2 -7 2 -19 0 -25z m-299 -35 c-2 -10 -12 -18 -23 -18 -11 0 -21 8 -23
18 -3 13 3 17 23 17 20 0 26 -4 23 -17z m299 -50 c-2 -16 -4 -5 -4 22 0 28 2
40 4 28 2 -13 2 -35 0 -50z m-6092 47 c3 -6 -1 -7 -9 -4 -18 7 -21 14 -7 14 6
0 13 -4 16 -10z m7072 4 c-3 -3 -12 -4 -19 -1 -8 3 -5 6 6 6 11 1 17 -2 13 -5z
m-8729 -197 c12 -3 11 -5 -5 -6 -23 -1 -23 1 -21 97 l2 97 3 -92 c3 -76 7 -92
21 -96z m449 177 c-3 -3 -12 -4 -19 -1 -8 3 -5 6 6 6 11 1 17 -2 13 -5z m-610
-46 c46 -43 23 -108 -40 -111 -30 -2 -36 -5 -31 -20 12 -38 -46 -58 -60 -21
-5 14 18 44 35 44 5 0 0 9 -11 20 -64 64 40 151 107 88z m370 16 c-3 -3 -12
-4 -19 -1 -8 3 -5 6 6 6 11 1 17 -2 13 -5z m50 -10 c-3 -3 -12 -4 -19 -1 -8 3
-5 6 6 6 11 1 17 -2 13 -5z m8570 0 c-3 -3 -12 -4 -19 -1 -8 3 -5 6 6 6 11 1
17 -2 13 -5z m-8530 -10 c-3 -3 -12 -4 -19 -1 -8 3 -5 6 6 6 11 1 17 -2 13 -5z
m8490 0 c-3 -3 -12 -4 -19 -1 -8 3 -5 6 6 6 11 1 17 -2 13 -5z m-8440 -10 c-3
-3 -12 -4 -19 -1 -8 3 -5 6 6 6 11 1 17 -2 13 -5z m3083 -26 c10 -13 12 -506
2 -512 -5 -3 -16 0 -25 7 -14 10 -16 39 -17 187 -2 353 -2 354 18 339 9 -8 19
-17 22 -21z m2235 -495 c-2 -7 -14 -13 -26 -13 l-21 0 7 253 c6 212 10 255 24
271 15 17 16 0 19 -240 1 -142 0 -264 -3 -271z m3072 521 c-3 -3 -12 -4 -19
-1 -8 3 -5 6 6 6 11 1 17 -2 13 -5z m353 -59 c0 -61 -1 -65 -22 -64 -17 1 -19
2 -5 6 14 4 17 16 17 64 0 32 2 59 5 59 3 0 5 -29 5 -65z m-8703 49 c-3 -3
-12 -4 -19 -1 -8 3 -5 6 6 6 11 1 17 -2 13 -5z m8310 0 c-3 -3 -12 -4 -19 -1
-8 3 -5 6 6 6 11 1 17 -2 13 -5z m-8232 -14 c25 -11 -1 -11 -35 0 -20 6 -21 8
-5 8 11 0 29 -3 40 -8z m7426 0 c43 -24 11 -110 -41 -110 -55 0 -90 85 -47
112 17 11 65 10 88 -2z m756 4 c-3 -3 -12 -4 -19 -1 -8 3 -5 6 6 6 11 1 17 -2
13 -5z m-8440 -50 c-3 -3 -12 -4 -19 -1 -8 3 -5 6 6 6 11 1 17 -2 13 -5z
m8680 0 c-3 -3 -12 -4 -19 -1 -8 3 -5 6 6 6 11 1 17 -2 13 -5z m-8630 -10 c-3
-3 -12 -4 -19 -1 -8 3 -5 6 6 6 11 1 17 -2 13 -5z m50 -10 c-3 -3 -12 -4 -19
-1 -8 3 -5 6 6 6 11 1 17 -2 13 -5z m3225 -249 c3 -199 1 -230 -12 -230 -13 0
-15 35 -18 245 -2 216 -1 243 12 230 13 -12 16 -58 18 -245z m2024 -222 c-3
-7 -10 -13 -16 -13 -16 0 -14 462 3 479 10 10 13 -35 15 -221 1 -128 0 -238
-2 -245z m3221 471 c-3 -3 -12 -4 -19 -1 -8 3 -5 6 6 6 11 1 17 -2 13 -5z
m-8420 -10 c-3 -3 -12 -4 -19 -1 -8 3 -5 6 6 6 11 1 17 -2 13 -5z m8370 0 c-3
-3 -12 -4 -19 -1 -8 3 -5 6 6 6 11 1 17 -2 13 -5z m-8320 -10 c-3 -3 -12 -4
-19 -1 -8 3 -5 6 6 6 11 1 17 -2 13 -5z m8270 0 c-3 -3 -12 -4 -19 -1 -8 3 -5
6 6 6 11 1 17 -2 13 -5z m-8220 -10 c-3 -3 -12 -4 -19 -1 -8 3 -5 6 6 6 11 1
17 -2 13 -5z m-404 -11 c-7 -2 -19 -2 -25 0 -7 3 -2 5 12 5 14 0 19 -2 13 -5z
m8980 0 c-7 -2 -19 -2 -25 0 -7 3 -2 5 12 5 14 0 19 -2 13 -5z m-8856 -19 c-3
-3 -12 -4 -19 -1 -8 3 -5 6 6 6 11 1 17 -2 13 -5z m46 -11 c-7 -2 -19 -2 -25
0 -7 3 -2 5 12 5 14 0 19 -2 13 -5z m3395 -228 c3 -189 1 -215 -12 -215 -14 0
-16 28 -16 227 0 182 3 225 13 215 9 -9 13 -73 15 -227z m1852 10 c0 -198 -2
-225 -16 -225 -14 0 -15 25 -12 213 3 188 8 237 24 237 2 0 4 -101 4 -225z
m3393 218 c-7 -2 -19 -2 -25 0 -7 3 -2 5 12 5 14 0 19 -2 13 -5z m-8580 -10
c-7 -2 -19 -2 -25 0 -7 3 -2 5 12 5 14 0 19 -2 13 -5z m8520 0 c-7 -2 -19 -2
-25 0 -7 3 -2 5 12 5 14 0 19 -2 13 -5z m-8460 -10 c-7 -2 -19 -2 -25 0 -7 3
-2 5 12 5 14 0 19 -2 13 -5z m1132 -7 c28 -8 41 -14 30 -14 -21 0 -107 25 -90
27 6 0 33 -6 60 -13z m6172 8 c-3 -3 -12 -4 -19 -1 -8 3 -5 6 6 6 11 1 17 -2
13 -5z m1100 0 c-3 -3 -12 -4 -19 -1 -8 3 -5 6 6 6 11 1 17 -2 13 -5z m-8344
-11 c-7 -2 -19 -2 -25 0 -7 3 -2 5 12 5 14 0 19 -2 13 -5z m7192 -3 c-11 -5
-29 -8 -40 -8 -16 0 -15 2 5 8 34 11 60 11 35 0z m1092 4 c-3 -3 -12 -4 -19
-1 -8 3 -5 6 6 6 11 1 17 -2 13 -5z m-8234 -11 c-7 -2 -19 -2 -25 0 -7 3 -2 5
12 5 14 0 19 -2 13 -5z m8174 1 c-3 -3 -12 -4 -19 -1 -8 3 -5 6 6 6 11 1 17
-2 13 -5z m-7070 -10 c-3 -3 -12 -4 -19 -1 -8 3 -5 6 6 6 11 1 17 -2 13 -5z
m5970 0 c-3 -3 -12 -4 -19 -1 -8 3 -5 6 6 6 11 1 17 -2 13 -5z m-7550 -156
c-2 -29 -3 -6 -3 52 0 58 1 81 3 53 2 -29 2 -77 0 -105z m9110 0 c-2 -29 -3
-8 -3 47 0 55 1 79 3 53 2 -26 2 -71 0 -100z m-1209 116 c45 -31 16 -104 -42
-104 -50 0 -73 63 -36 100 24 24 48 25 78 4z m-6405 -1 c-7 -2 -19 -2 -25 0
-7 3 -2 5 12 5 14 0 19 -2 13 -5z m6140 0 c-7 -2 -19 -2 -25 0 -7 3 -2 5 12 5
14 0 19 -2 13 -5z m-6096 -9 c-3 -3 -12 -4 -19 -1 -8 3 -5 6 6 6 11 1 17 -2
13 -5z m2202 -191 c-1 -118 -4 -185 -9 -165 -4 18 -6 101 -5 185 4 183 4 177
10 177 3 0 5 -89 4 -197z m3848 191 c-3 -3 -12 -4 -19 -1 -8 3 -5 6 6 6 11 1
17 -2 13 -5z m1670 -10 c8 -21 -13 -42 -28 -27 -13 13 -5 43 11 43 6 0 13 -7
17 -16z m-7674 -1 c-7 -2 -19 -2 -25 0 -7 3 -2 5 12 5 14 0 19 -2 13 -5z
m3784 -280 c-1 -54 -3 -10 -3 97 0 107 2 151 3 98 2 -54 2 -142 0 -195z m2176
280 c-7 -2 -19 -2 -25 0 -7 3 -2 5 12 5 14 0 19 -2 13 -5z m-5829 -29 c19 -18
19 -20 6 -45 -18 -32 -80 -19 -80 17 0 17 28 44 45 44 7 0 21 -7 29 -16z
m2086 -191 c0 -128 -3 -183 -10 -173 -13 19 -12 360 1 360 5 0 9 -81 9 -187z
m1515 12 c-1 -96 -5 -178 -8 -182 -4 -3 -7 75 -7 175 0 100 4 182 9 182 5 0 8
-77 6 -175z m-3832 158 c-7 -2 -19 -2 -25 0 -7 3 -2 5 12 5 14 0 19 -2 13 -5z
m1254 -30 c-3 -10 -5 -4 -5 12 0 17 2 24 5 18 2 -7 2 -21 0 -30z m4910 31 c-3
-3 -12 -4 -19 -1 -8 3 -5 6 6 6 11 1 17 -2 13 -5z m-6114 -11 c-7 -2 -19 -2
-25 0 -7 3 -2 5 12 5 14 0 19 -2 13 -5z m544 -45 c-2 -13 -4 -5 -4 17 -1 22 1
32 4 23 2 -10 2 -28 0 -40z m5520 46 c-3 -3 -12 -4 -19 -1 -8 3 -5 6 6 6 11 1
17 -2 13 -5z m-6014 -11 c-7 -2 -19 -2 -25 0 -7 3 -2 5 12 5 14 0 19 -2 13 -5z
m570 -10 c-7 -2 -19 -2 -25 0 -7 3 -2 5 12 5 14 0 19 -2 13 -5z m1697 -165 c0
-89 -3 -159 -6 -156 -8 9 -10 327 -1 321 4 -2 7 -77 7 -165z m3123 165 c-7 -2
-19 -2 -25 0 -7 3 -2 5 12 5 14 0 19 -2 13 -5z m54 -35 c-3 -7 -5 -2 -5 12 0
14 2 19 5 13 2 -7 2 -19 0 -25z m-4752 12 c-3 -5 -14 -10 -23 -9 -14 0 -13 2
3 9 27 11 27 11 20 0z m7118 -21 c56 -69 -44 -155 -116 -99 -36 28 -36 72 -1
107 21 21 32 24 62 19 20 -3 45 -15 55 -27z m-7910 14 c-7 -2 -21 -2 -30 0
-10 3 -4 5 12 5 17 0 24 -2 18 -5z m3774 -40 c-3 -10 -5 -2 -5 17 0 19 2 27 5
18 2 -10 2 -26 0 -35z m2396 40 c-7 -2 -21 -2 -30 0 -10 3 -4 5 12 5 17 0 24
-2 18 -5z m-6110 -10 c-7 -2 -21 -2 -30 0 -10 3 -4 5 12 5 17 0 24 -2 18 -5z
m6050 0 c-7 -2 -19 -2 -25 0 -7 3 -2 5 12 5 14 0 19 -2 13 -5z m-6006 -9 c-3
-3 -12 -4 -19 -1 -8 3 -5 6 6 6 11 1 17 -2 13 -5z m576 -1 c-7 -2 -21 -2 -30
0 -10 3 -4 5 12 5 17 0 24 -2 18 -5z m102 -31 c-2 -2 -23 4 -47 13 l-43 16 38
-5 c24 -3 37 -1 38 7 0 7 4 3 8 -8 5 -11 7 -21 6 -23z m4698 31 c-7 -2 -19 -2
-25 0 -7 3 -2 5 12 5 14 0 19 -2 13 -5z m574 1 c-3 -3 -12 -4 -19 -1 -8 3 -5
6 6 6 11 1 17 -2 13 -5z m-7474 -21 c-7 -2 -21 -2 -30 0 -10 3 -4 5 12 5 17 0
24 -2 18 -5z m2540 -35 c8 -12 7 -21 -2 -32 -19 -22 -48 -20 -61 5 -23 41 38
68 63 27z m-416 -4 c-3 -3 -12 -4 -19 -1 -8 3 -5 6 6 6 11 1 17 -2 13 -5z
m555 -50 c-6 -35 -12 -29 -12 14 0 23 3 32 9 24 4 -7 6 -24 3 -38z m-642 20
c0 -2 -7 -4 -15 -4 -8 0 -15 4 -15 10 0 5 7 7 15 4 8 -4 15 -8 15 -10z m740 6
c0 -5 -5 -10 -11 -10 -5 0 -7 5 -4 10 3 6 8 10 11 10 2 0 4 -4 4 -10z m350 -6
c0 -8 -5 -12 -10 -9 -6 4 -8 11 -5 16 9 14 15 11 15 -7z m2067 -136 c-2 -29
-3 -8 -3 47 0 55 1 79 3 53 2 -26 2 -71 0 -100z m1113 117 c0 -14 -2 -25 -4
-25 -2 0 -6 11 -8 25 -3 14 -1 25 3 25 5 0 9 -11 9 -25z m-3534 0 c19 -14 19
-14 -1 -15 l-20 -1 20 -9 c18 -7 18 -9 3 -15 -9 -4 -25 -2 -35 4 -11 6 -13 11
-5 11 9 0 11 7 7 20 -8 24 4 26 31 5z m3463 1 c-2 -2 -15 -7 -29 -10 l-25 -7
25 15 c21 12 42 14 29 2z m-4102 -2 c-3 -3 -12 -4 -19 -1 -8 3 -5 6 6 6 11 1
17 -2 13 -5z m780 -56 c-2 -13 -4 -3 -4 22 0 25 2 35 4 23 2 -13 2 -33 0 -45z
m3950 56 c-3 -3 -12 -4 -19 -1 -8 3 -5 6 6 6 11 1 17 -2 13 -5z m-3877 -35 c4
-13 4 -32 2 -42 -8 -32 -27 -12 -30 32 -2 32 0 42 10 39 7 -3 15 -15 18 -29z
m3027 -1 c-5 -28 -27 -36 -27 -10 0 20 8 32 22 32 4 0 6 -10 5 -22z m50 -15
c-3 -10 -5 -4 -5 12 0 17 2 24 5 18 2 -7 2 -21 0 -30z m168 28 c3 -5 1 -12 -5
-16 -5 -3 -10 1 -10 9 0 18 6 21 15 7z m-3083 -49 c5 -33 0 -52 -13 -52 -5 0
-9 18 -9 40 0 46 16 54 22 12z m-1135 -39 c-3 -10 -5 -2 -5 17 0 19 2 27 5 18
2 -10 2 -26 0 -35z m740 41 c-3 -3 -12 -4 -19 -1 -8 3 -5 6 6 6 11 1 17 -2 13
-5z m430 -46 c-2 -13 -4 -5 -4 17 -1 22 1 32 4 23 2 -10 2 -28 0 -40z m2663
22 c0 -16 -4 -30 -8 -30 -4 0 -9 14 -10 30 -1 17 2 30 8 30 5 0 10 -13 10 -30z
m-2370 10 c0 -5 -4 -10 -10 -10 -5 0 -10 5 -10 10 0 6 5 10 10 10 6 0 10 -4
10 -10z m367 -12 c-3 -8 -6 -5 -6 6 -1 11 2 17 5 13 3 -3 4 -12 1 -19z m2173
18 c0 -2 -7 -6 -15 -10 -8 -3 -15 -1 -15 4 0 6 7 10 15 10 8 0 15 -2 15 -4z
m-223 -48 c-3 -7 -5 -2 -5 12 0 14 2 19 5 13 2 -7 2 -19 0 -25z m-2440 -30
c-2 -13 -4 -5 -4 17 -1 22 1 32 4 23 2 -10 2 -28 0 -40z m-3404 35 c-9 -3 -14
-30 -15 -76 l-2 -72 -3 64 c-4 71 0 91 19 90 10 0 10 -2 1 -6z m3034 1 c-3 -3
-12 -4 -19 -1 -8 3 -5 6 6 6 11 1 17 -2 13 -5z m2640 -41 c-3 -10 -5 -2 -5 17
0 19 2 27 5 18 2 -10 2 -26 0 -35z m390 41 c-3 -3 -12 -4 -19 -1 -8 3 -5 6 6
6 11 1 17 -2 13 -5z m-5980 -10 c-3 -3 -12 -4 -19 -1 -8 3 -5 6 6 6 11 1 17
-2 13 -5z m9010 -91 c-2 -21 -4 -6 -4 32 0 39 2 55 4 38 2 -18 2 -50 0 -70z
m-8839 80 c-15 -2 -42 -2 -60 0 -18 2 -6 4 27 4 33 0 48 -2 33 -4z m8630 0
c-16 -2 -40 -2 -55 0 -16 2 -3 4 27 4 30 0 43 -2 28 -4z m-8490 -10 c-21 -2
-55 -2 -75 0 -21 2 -4 4 37 4 41 0 58 -2 38 -4z m8355 0 c-18 -2 -48 -2 -65 0
-18 2 -4 4 32 4 36 0 50 -2 33 -4z m-8270 -10 c-7 -2 -19 -2 -25 0 -7 3 -2 5
12 5 14 0 19 -2 13 -5z m8140 0 c-7 -2 -19 -2 -25 0 -7 3 -2 5 12 5 14 0 19
-2 13 -5z m-7250 -60 c-7 -2 -21 -2 -30 0 -10 3 -4 5 12 5 17 0 24 -2 18 -5z
m-1030 -10 c-29 -2 -77 -2 -105 0 -29 2 -6 3 52 3 58 0 81 -1 53 -3z m1170 0
c-18 -2 -48 -2 -65 0 -18 2 -4 4 32 4 36 0 50 -2 33 -4z m6125 0 c-15 -2 -42
-2 -60 0 -18 2 -6 4 27 4 33 0 48 -2 33 -4z m1200 0 c-26 -2 -71 -2 -100 0
-29 2 -8 3 47 3 55 0 79 -1 53 -3z m-8345 -10 c-13 -2 -35 -2 -50 0 -16 2 -5
4 22 4 28 0 40 -2 28 -4z m8135 0 c-10 -2 -26 -2 -35 0 -10 3 -2 5 17 5 19 0
27 -2 18 -5z m-4275 -10 c-7 -2 -19 -2 -25 0 -7 3 -2 5 12 5 14 0 19 -2 13 -5z
m230 0 c-7 -2 -21 -2 -30 0 -10 3 -4 5 12 5 17 0 24 -2 18 -5z m-2490 -10 c-7
-2 -19 -2 -25 0 -7 3 -2 5 12 5 14 0 19 -2 13 -5z m105 -10 c-15 -2 -42 -2
-60 0 -18 2 -6 4 27 4 33 0 48 -2 33 -4z m4745 0 c-13 -2 -35 -2 -50 0 -16 2
-5 4 22 4 28 0 40 -2 28 -4z m-5430 -20 c-18 -2 -48 -2 -65 0 -18 2 -4 4 32 4
36 0 50 -2 33 -4z m554 -25 c-3 -7 -5 -2 -5 12 0 14 2 19 5 13 2 -7 2 -19 0
-25z m2286 25 c-7 -2 -19 -2 -25 0 -7 3 -2 5 12 5 14 0 19 -2 13 -5z m230 0
c-7 -2 -21 -2 -30 0 -10 3 -4 5 12 5 17 0 24 -2 18 -5z m3050 0 c-18 -2 -48
-2 -65 0 -18 2 -4 4 32 4 36 0 50 -2 33 -4z m-5430 -30 c-13 -2 -35 -2 -50 0
-16 2 -5 4 22 4 28 0 40 -2 28 -4z m4684 1 c-3 -3 -12 -4 -19 -1 -8 3 -5 6 6
6 11 1 17 -2 13 -5z m-6474 -11 c-46 -2 -120 -2 -165 0 -46 1 -9 3 82 3 91 0
128 -2 83 -3z m3940 0 c-7 -2 -19 -2 -25 0 -7 3 -2 5 12 5 14 0 19 -2 13 -5z
m235 2 c-11 -11 -60 -16 -53 -5 3 5 18 10 32 10 15 0 24 -2 21 -5z m4245 -2
c-46 -2 -120 -2 -165 0 -46 1 -9 3 82 3 91 0 128 -2 83 -3z m-6256 -265 c-1
-51 -3 -12 -3 87 0 99 2 141 3 93 2 -48 2 -129 0 -180z m226 255 c-7 -2 -21
-2 -30 0 -10 3 -4 5 12 5 17 0 24 -2 18 -5z m3510 0 c-7 -2 -21 -2 -30 0 -10
3 -4 5 12 5 17 0 24 -2 18 -5z m-4796 -20 c-20 -2 -52 -2 -70 0 -17 2 0 4 38
4 39 0 53 -2 32 -4z m6110 0 c-20 -2 -52 -2 -70 0 -17 2 0 4 38 4 39 0 53 -2
32 -4z m-5539 -56 c12 -3 10 -5 -5 -6 -20 -1 -23 4 -22 32 2 29 2 29 6 5 2
-15 12 -29 21 -31z m95 46 c-13 -2 -35 -2 -50 0 -16 2 -5 4 22 4 28 0 40 -2
28 -4z m2170 0 c-7 -2 -19 -2 -25 0 -7 3 -2 5 12 5 14 0 19 -2 13 -5z m237 -2
c0 -5 -13 -9 -30 -9 -16 1 -27 5 -24 10 7 11 54 10 54 -1z m2358 2 c-10 -2
-28 -2 -40 0 -13 2 -5 4 17 4 22 1 32 -1 23 -4z m-4155 -10 c-7 -2 -19 -2 -25
0 -7 3 -2 5 12 5 14 0 19 -2 13 -5z m3520 0 c-7 -2 -19 -2 -25 0 -7 3 -2 5 12
5 14 0 19 -2 13 -5z m-3276 -9 c-3 -3 -12 -4 -19 -1 -8 3 -5 6 6 6 11 1 17 -2
13 -5z m3030 0 c-3 -3 -12 -4 -19 -1 -8 3 -5 6 6 6 11 1 17 -2 13 -5z m-5997
-30 c0 -2 -18 -4 -40 -4 -22 0 -40 3 -40 8 0 4 18 6 40 4 22 -2 40 -6 40 -8z
m353 9 c-45 -2 -122 -2 -170 0 -48 1 -11 3 82 3 94 0 133 -2 88 -3z m2924 -95
l0 -103 -7 75 c-6 64 -4 130 5 130 2 0 3 -46 2 -102z m1010 96 c-3 -3 -12 -4
-19 -1 -8 3 -5 6 6 6 11 1 17 -2 13 -5z m233 -4 c0 -5 -13 -10 -30 -10 -16 0
-30 5 -30 10 0 6 14 10 30 10 17 0 30 -4 30 -10z m317 -19 c21 -44 -22 -85
-65 -62 -29 15 -35 41 -17 68 21 32 65 28 82 -6z m3926 22 c-46 -2 -120 -2
-165 0 -46 1 -9 3 82 3 91 0 128 -2 83 -3z m-7280 -10 c-24 -2 -62 -2 -85 0
-24 2 -5 4 42 4 47 0 66 -2 43 -4z m645 0 c-15 -2 -42 -2 -60 0 -18 2 -6 4 27
4 33 0 48 -2 33 -4z m839 1 c-3 -3 -12 -4 -19 -1 -8 3 -5 6 6 6 11 1 17 -2 13
-5z m3030 0 c-3 -3 -12 -4 -19 -1 -8 3 -5 6 6 6 11 1 17 -2 13 -5z m871 -1
c-16 -2 -40 -2 -55 0 -16 2 -3 4 27 4 30 0 43 -2 28 -4z m75 0 c-7 -2 -19 -2
-25 0 -7 3 -2 5 12 5 14 0 19 -2 13 -5z m605 0 c-21 -2 -55 -2 -75 0 -21 2 -4
4 37 4 41 0 58 -2 38 -4z m-4441 -60 c-3 -10 -5 -4 -5 12 0 17 2 24 5 18 2 -7
2 -21 0 -30z m1180 31 c-3 -3 -12 -4 -19 -1 -8 3 -5 6 6 6 11 1 17 -2 13 -5z
m233 -4 c0 -5 -13 -10 -30 -10 -16 0 -30 5 -30 10 0 6 14 10 30 10 17 0 30 -4
30 -10z m-2123 -67 c-2 -16 -4 -5 -4 22 0 28 2 40 4 28 2 -13 2 -35 0 -50z
m4150 0 c-2 -16 -4 -5 -4 22 0 28 2 40 4 28 2 -13 2 -35 0 -50z m-4670 -35
c-2 -18 -4 -4 -4 32 0 36 2 50 4 33 2 -18 2 -48 0 -65z m3960 70 c-3 -8 -6 -5
-6 6 -1 11 2 17 5 13 3 -3 4 -12 1 -19z m1230 -70 c-2 -18 -4 -4 -4 32 0 36 2
50 4 33 2 -18 2 -48 0 -65z m-6047 2 c0 -47 -4 -80 -10 -80 -6 0 -10 33 -10
80 0 47 4 80 10 80 6 0 10 -33 10 -80z m6920 -1 c0 -51 -4 -78 -10 -74 -5 3
-10 40 -10 81 0 43 4 74 10 74 6 0 10 -34 10 -81z m-3657 64 c-7 -2 -19 -2
-25 0 -7 3 -2 5 12 5 14 0 19 -2 13 -5z m237 -3 c0 -5 -13 -10 -30 -10 -16 0
-30 5 -30 10 0 6 14 10 30 10 17 0 30 -4 30 -10z m-2523 -42 c-3 -8 -6 -5 -6
6 -1 11 2 17 5 13 3 -3 4 -12 1 -19z m2293 2 c0 -5 -6 -10 -14 -10 -8 0 -18 5
-21 10 -3 6 3 10 14 10 12 0 21 -4 21 -10z m230 0 c0 -5 -13 -10 -30 -10 -16
0 -30 5 -30 10 0 6 14 10 30 10 17 0 30 -4 30 -10z m-4588 -118 c2 -34 0 -62
-4 -62 -5 0 -7 42 -6 93 1 94 5 82 10 -31z m4358 78 c0 -5 -9 -10 -20 -10 -11
0 -20 5 -20 10 0 6 9 10 20 10 11 0 20 -4 20 -10z m230 0 c0 -5 -13 -10 -30
-10 -16 0 -30 5 -30 10 0 6 14 10 30 10 17 0 30 -4 30 -10z m-4472 -26 c4 -31
-23 -50 -53 -36 -14 7 -25 18 -25 25 0 40 72 50 78 11z m8969 -76 c-2 -18 -4
-4 -4 32 0 36 2 50 4 33 2 -18 2 -48 0 -65z m-7750 50 c-3 -8 -6 -5 -6 6 -1
11 2 17 5 13 3 -3 4 -12 1 -19z m3023 12 c0 -5 -9 -10 -20 -10 -11 0 -20 5
-20 10 0 6 9 10 20 10 11 0 20 -4 20 -10z m230 0 c0 -5 -11 -10 -24 -10 -14 0
-28 5 -31 10 -4 6 7 10 24 10 17 0 31 -4 31 -10z m2350 -73 c8 -7 15 -24 15
-39 1 -22 -5 -28 -31 -32 -39 -8 -61 0 -69 25 -15 46 45 79 85 46z m-4723 -3
c-3 -3 -12 -4 -19 -1 -8 3 -5 6 6 6 11 1 17 -2 13 -5z m820 0 c-3 -3 -12 -4
-19 -1 -8 3 -5 6 6 6 11 1 17 -2 13 -5z m-884 -11 c-7 -2 -19 -2 -25 0 -7 3
-2 5 12 5 14 0 19 -2 13 -5z m1634 -325 c-1 -62 -3 -14 -3 107 0 121 2 172 3
113 2 -59 2 -158 0 -220z m1510 -5 c-1 -60 -3 -11 -3 107 0 118 2 167 3 108 2
-60 2 -156 0 -215z m-3104 290 c-7 -2 -19 -2 -25 0 -7 3 -2 5 12 5 14 0 19 -2
13 -5z m1534 -330 c-1 -65 -3 -14 -3 112 0 127 2 180 3 118 2 -62 2 -165 0
-230z m110 75 c-1 -51 -3 -12 -3 87 0 99 2 141 3 93 2 -48 2 -129 0 -180z
m1520 -75 c-1 -65 -3 -14 -3 112 0 127 2 180 3 118 2 -62 2 -165 0 -230z
m-1950 305 c-3 -8 -6 -5 -6 6 -1 11 2 17 5 13 3 -3 4 -12 1 -19z m212 5 c-10
-11 -10 -14 -1 -9 9 6 12 -47 12 -252 0 -219 -2 -262 -15 -272 -13 -11 -15 19
-15 262 0 151 3 278 7 281 14 15 25 6 12 -10z m1628 -50 c-2 -16 -4 -5 -4 22
0 28 2 40 4 28 2 -13 2 -35 0 -50z m-3692 47 c-67 -13 -127 -19 -120 -12 7 7
87 19 130 20 24 0 22 -2 -10 -8z m5978 3 c-7 -2 -21 -2 -30 0 -10 3 -4 5 12 5
17 0 24 -2 18 -5z m75 -10 c-10 -2 -26 -2 -35 0 -10 3 -2 5 17 5 19 0 27 -2
18 -5z m-6221 -9 c-3 -3 -12 -4 -19 -1 -8 3 -5 6 6 6 11 1 17 -2 13 -5z m4093
-260 c0 -236 -2 -265 -15 -254 -13 10 -15 53 -15 266 0 219 2 254 15 254 13 0
15 -36 15 -266z m-3312 239 c-10 -2 -26 -2 -35 0 -10 3 -2 5 17 5 19 0 27 -2
18 -5z m4134 -38 c9 -19 7 -30 -7 -51 -14 -22 -15 -28 -4 -36 11 -7 9 -8 -6
-6 -11 1 -26 -1 -34 -6 -9 -6 -12 -5 -8 1 4 5 -5 20 -19 32 -33 29 -30 80 5
98 30 14 57 2 73 -32z m641 38 c-7 -2 -21 -2 -30 0 -10 3 -4 5 12 5 17 0 24
-2 18 -5z m-5606 -70 c-2 -16 -4 -5 -4 22 0 28 2 40 4 28 2 -13 2 -35 0 -50z
m2210 -210 c2 -256 1 -273 -17 -295 -19 -23 -19 -21 -20 275 0 277 1 298 17
295 16 -3 18 -27 20 -275z m2023 128 l0 -149 30 11 c33 12 33 11 32 180 0 67
2 72 32 61 14 -5 16 -44 16 -326 l0 -320 -25 23 c-24 23 -25 28 -25 162 0 111
-3 137 -14 137 -8 0 -21 3 -30 6 -14 5 -16 -8 -16 -106 0 -113 0 -113 -20 -95
-20 18 -20 27 -16 229 3 116 5 239 5 274 1 48 4 62 16 62 13 0 15 -23 15 -149z
m-3987 132 c-7 -2 -19 -2 -25 0 -7 3 -2 5 12 5 14 0 19 -2 13 -5z m4774 -15
c-3 -8 -6 -5 -6 6 -1 11 2 17 5 13 3 -3 4 -12 1 -19z m1166 15 c-7 -2 -19 -2
-25 0 -7 3 -2 5 12 5 14 0 19 -2 13 -5z m-6015 -10 c-10 -2 -26 -2 -35 0 -10
3 -2 5 17 5 19 0 27 -2 18 -5z m6085 0 c-7 -2 -19 -2 -25 0 -7 3 -2 5 12 5 14
0 19 -2 13 -5z m-696 -9 c-3 -3 -12 -4 -19 -1 -8 3 -5 6 6 6 11 1 17 -2 13 -5z
m-4744 -11 c-7 -2 -19 -2 -25 0 -7 3 -2 5 12 5 14 0 19 -2 13 -5z m1297 -106
c0 -112 0 -114 25 -125 36 -17 31 -72 -6 -72 -18 0 -19 -9 -19 -148 0 -145 -1
-149 -25 -172 l-25 -23 0 320 c0 176 3 323 7 326 3 4 15 7 25 7 16 0 18 -10
18 -113z m3503 106 c-7 -2 -19 -2 -25 0 -7 3 -2 5 12 5 14 0 19 -2 13 -5z
m-3913 -13 c-8 -5 -19 -10 -25 -10 -5 0 -3 5 5 10 8 5 20 10 25 10 6 0 3 -5
-5 -10z m3020 0 c8 -5 11 -10 5 -10 -5 0 -17 5 -25 10 -8 5 -10 10 -5 10 6 0
17 -5 25 -10z m-5563 -6 c-3 -3 -12 -4 -19 -1 -8 3 -5 6 6 6 11 1 17 -2 13 -5z
m4750 -71 c-2 -16 -4 -3 -4 27 0 30 2 43 4 28 2 -16 2 -40 0 -55z m-4809 60
c-10 -2 -26 -2 -35 0 -10 3 -2 5 17 5 19 0 27 -2 18 -5z m8240 0 c-10 -2 -26
-2 -35 0 -10 3 -2 5 17 5 19 0 27 -2 18 -5z m-8325 -10 c-13 -2 -33 -2 -45 0
-13 2 -3 4 22 4 25 0 35 -2 23 -4z m1230 0 c-7 -2 -19 -2 -25 0 -7 3 -2 5 12
5 14 0 19 -2 13 -5z m1457 -3 c-8 -5 -19 -10 -25 -10 -5 0 -3 5 5 10 8 5 20
10 25 10 6 0 3 -5 -5 -10z m200 6 c0 -2 -13 -9 -30 -15 -35 -12 -41 -5 -7 9
25 10 37 12 37 6z m2635 -14 c-3 -3 -11 0 -18 7 -9 10 -8 11 6 5 10 -3 15 -9
12 -12z m1642 12 c-3 -3 -12 -4 -19 -1 -8 3 -5 6 6 6 11 1 17 -2 13 -5z m1251
-1 c-10 -2 -26 -2 -35 0 -10 3 -2 5 17 5 19 0 27 -2 18 -5z m-8505 -10 c-13
-2 -33 -2 -45 0 -13 2 -3 4 22 4 25 0 35 -2 23 -4z m1260 0 c-7 -2 -21 -2 -30
0 -10 3 -4 5 12 5 17 0 24 -2 18 -5z m6070 0 c-7 -2 -19 -2 -25 0 -7 3 -2 5
12 5 14 0 19 -2 13 -5z m1275 0 c-10 -2 -28 -2 -40 0 -13 2 -5 4 17 4 22 1 32
-1 23 -4z m-7405 -10 c-7 -2 -19 -2 -25 0 -7 3 -2 5 12 5 14 0 19 -2 13 -5z
m6184 1 c-3 -3 -12 -4 -19 -1 -8 3 -5 6 6 6 11 1 17 -2 13 -5z m-7579 -11
c-10 -2 -28 -2 -40 0 -13 2 -5 4 17 4 22 1 32 -1 23 -4z m8980 0 c-10 -2 -26
-2 -35 0 -10 3 -2 5 17 5 19 0 27 -2 18 -5z m-9051 -220 c-1 -43 -3 -10 -3 72
0 83 2 118 3 78 2 -40 2 -107 0 -150z m2810 211 c-3 -3 -12 -4 -19 -1 -8 3 -5
6 6 6 11 1 17 -2 13 -5z m433 -357 l0 -363 -31 -27 c-18 -15 -33 -26 -35 -24
-2 1 -4 171 -5 377 l-1 375 24 12 c49 27 48 37 48 -350z m2663 343 c4 -4 7
-159 6 -346 -2 -427 -1 -414 -10 -414 -7 0 -23 31 -21 41 1 4 -6 6 -16 5 -16
-1 -17 27 -20 367 l-2 367 27 -6 c16 -4 32 -10 36 -14z m3184 -197 c-1 -43 -3
-10 -3 72 0 83 2 118 3 78 2 -40 2 -107 0 -150z m-7750 175 c-3 -7 -5 -2 -5
12 0 14 2 19 5 13 2 -7 2 -19 0 -25z m1403 17 c-7 -9 -15 -13 -19 -10 -3 3 1
10 9 15 21 14 24 12 10 -5z m-1167 -2 c-7 -2 -19 -2 -25 0 -7 3 -2 5 12 5 14
0 19 -2 13 -5z m4787 -3 c0 -5 -2 -10 -4 -10 -3 0 -8 5 -11 10 -3 6 -1 10 4
10 6 0 11 -4 11 -10z m-5902 -7 c-10 -2 -28 -2 -40 0 -13 2 -5 4 17 4 22 1 32
-1 23 -4z m1065 0 c-7 -2 -19 -2 -25 0 -7 3 -2 5 12 5 14 0 19 -2 13 -5z
m1527 3 c0 -2 -9 -6 -20 -9 -11 -3 -18 -1 -14 4 5 9 34 13 34 5z m3007 -2 c-3
-3 -12 -4 -19 -1 -8 3 -5 6 6 6 11 1 17 -2 13 -5z m1526 -1 c-7 -2 -19 -2 -25
0 -7 3 -2 5 12 5 14 0 19 -2 13 -5z m1080 0 c-7 -2 -19 -2 -25 0 -7 3 -2 5 12
5 14 0 19 -2 13 -5z m-8285 -10 c-10 -2 -28 -2 -40 0 -13 2 -5 4 17 4 22 1 32
-1 23 -4z m1095 0 c-7 -2 -21 -2 -30 0 -10 3 -4 5 12 5 17 0 24 -2 18 -5z
m6164 1 c-3 -3 -12 -4 -19 -1 -8 3 -5 6 6 6 11 1 17 -2 13 -5z m1106 -1 c-7
-2 -21 -2 -30 0 -10 3 -4 5 12 5 17 0 24 -2 18 -5z m-8445 -10 c-10 -2 -26 -2
-35 0 -10 3 -2 5 17 5 19 0 27 -2 18 -5z m8520 0 c-10 -2 -26 -2 -35 0 -10 3
-2 5 17 5 19 0 27 -2 18 -5z m-8590 -10 c-10 -2 -26 -2 -35 0 -10 3 -2 5 17 5
19 0 27 -2 18 -5z m807 -13 c9 -27 -1 -40 -31 -40 -26 0 -40 20 -30 45 8 23
53 19 61 -5z m1983 -855 l-53 -49 -3 439 c-3 490 -9 448 68 470 l35 11 3 -411
2 -410 -52 -50z m3053 837 c1 -14 2 -14 6 1 5 18 6 18 24 1 24 -21 24 -30 0
-55 -12 -13 -21 -17 -26 -10 -3 6 -1 11 4 11 6 0 11 5 11 10 0 19 -21 10 -30
-12 -8 -21 -9 -21 -10 -3 -1 19 -1 19 -15 2 -18 -24 -8 -50 16 -44 11 3 17 1
13 -4 -3 -5 0 -9 7 -9 7 0 21 -7 31 -17 16 -15 18 -36 18 -245 0 -150 -3 -227
-10 -223 -5 3 -10 1 -10 -4 0 -6 -8 -11 -17 -11 -13 0 -14 3 -6 11 6 6 9 18 6
26 -5 12 -7 12 -15 1 -7 -9 -8 -5 -5 14 3 19 0 25 -10 21 -7 -3 -14 -9 -14
-14 -3 -19 -5 -25 -16 -44 -10 -16 -12 49 -12 307 l0 327 30 -11 c16 -5 30
-17 30 -26z m2822 31 c-7 -2 -21 -2 -30 0 -10 3 -4 5 12 5 17 0 24 -2 18 -5z
m-3646 -70 c-2 -16 -4 -5 -4 22 0 28 2 40 4 28 2 -13 2 -35 0 -50z m-4754 10
c-7 -2 -21 -2 -30 0 -10 3 -4 5 12 5 17 0 24 -2 18 -5z m917 -13 c25 0 60 -38
60 -64 -1 -22 -30 -48 -66 -60 -14 -4 -27 0 -40 15 l-19 21 -6 -24 c-4 -13 -7
7 -8 49 -1 71 -1 72 27 75 15 2 29 0 30 -4 2 -5 12 -8 22 -8z m7213 13 c-7 -2
-19 -2 -25 0 -7 3 -2 5 12 5 14 0 19 -2 13 -5z m-8200 -10 c-7 -2 -21 -2 -30
0 -10 3 -4 5 12 5 17 0 24 -2 18 -5z m8260 0 c-7 -2 -19 -2 -25 0 -7 3 -2 5
12 5 14 0 19 -2 13 -5z m-8319 -19 c4 -9 1 -23 -5 -30 -17 -21 -50 -17 -56 6
-4 13 -14 20 -32 21 -22 1 -21 3 9 9 58 12 78 11 84 -6z m8389 9 c-7 -2 -19
-2 -25 0 -7 3 -2 5 12 5 14 0 19 -2 13 -5z m-6979 -18 c12 -31 -17 -61 -48
-49 -38 14 -27 64 14 64 16 0 30 -7 34 -15z m1071 -93 c0 -60 -4 -110 -10
-114 -6 -5 -6 -8 2 -8 12 0 15 -43 6 -139 -3 -43 -8 -59 -14 -50 -5 8 -9 10
-9 4 1 -5 7 -18 14 -28 11 -14 14 -68 15 -237 0 -136 -3 -220 -9 -220 -6 0
-10 9 -10 21 l0 21 -34 -21 c-60 -37 -54 -16 7 23 15 10 27 23 27 28 0 5 -13
0 -29 -11 -16 -12 -35 -21 -43 -21 -10 0 -10 3 2 11 13 9 13 10 0 6 -11 -3
-15 -20 -16 -69 0 -56 2 -66 16 -63 35 7 41 -11 13 -36 -17 -15 -22 -17 -13
-5 13 17 13 19 0 14 -8 -2 -17 -15 -21 -29 l-6 -24 -4 25 c-2 14 -10 26 -16
26 -24 3 -25 4 -13 19 10 12 10 15 0 15 -8 0 -10 3 -6 7 4 5 13 1 20 -8 9 -14
11 -5 11 45 -1 33 -5 62 -10 63 -12 2 -23 32 -24 66 -1 23 -5 27 -29 27 -63 0
-83 81 -24 97 15 4 31 7 36 8 5 0 11 14 13 30 2 17 10 35 18 41 17 13 20 50 5
59 -12 7 -14 26 -2 24 19 -3 25 2 12 11 -11 8 -8 9 11 4 35 -7 47 12 13 20
-16 4 -32 2 -42 -6 -13 -11 -15 -10 -10 10 4 12 3 22 0 22 -11 0 -12 138 -2
163 5 12 9 16 9 10 1 -7 6 -13 11 -13 6 0 10 22 10 49 0 49 0 49 47 72 39 19
44 24 27 30 -10 4 -41 8 -67 8 -41 1 -48 4 -45 19 2 9 11 16 21 16 12 -1 17 7
18 30 2 30 2 30 6 3 4 -26 7 -27 53 -26 28 1 47 6 43 11 -3 6 -14 7 -26 4 -21
-5 -57 9 -57 23 0 12 50 32 62 25 6 -4 8 -2 4 4 -6 10 7 19 29 21 6 1 10 -41
10 -107z m3415 98 c0 -5 -5 -10 -11 -10 -5 0 -7 5 -4 10 3 6 8 10 11 10 2 0 4
-4 4 -10z m2563 3 c-7 -2 -21 -2 -30 0 -10 3 -4 5 12 5 17 0 24 -2 18 -5z
m-8595 -10 c-10 -2 -26 -2 -35 0 -10 3 -2 5 17 5 19 0 27 -2 18 -5z m8655 0
c-7 -2 -19 -2 -25 0 -7 3 -2 5 12 5 14 0 19 -2 13 -5z m-9109 -25 c15 -25 -4
-52 -39 -56 -42 -5 -59 32 -29 63 20 20 53 16 68 -7z m1807 2 c22 -12 26 -59
7 -78 -7 -7 -24 -12 -38 -12 -33 0 -50 17 -50 52 0 40 40 59 81 38z m6843 -12
c20 -28 20 -30 -4 -57 -16 -19 -24 -21 -47 -14 -39 13 -57 52 -36 75 23 25 68
23 87 -4z m-2067 -40 c-2 -13 -4 -5 -4 17 -1 22 1 32 4 23 2 -10 2 -28 0 -40z
m-5864 35 c-7 -2 -19 -2 -25 0 -7 3 -2 5 12 5 14 0 19 -2 13 -5z m2217 -2 c0
-5 -7 -12 -16 -15 -14 -5 -15 -4 -4 9 14 17 20 19 20 6z m5907 3 c-3 -3 -12
-4 -19 -1 -8 3 -5 6 6 6 11 1 17 -2 13 -5z m-8184 -11 c-7 -2 -19 -2 -25 0 -7
3 -2 5 12 5 14 0 19 -2 13 -5z m8244 1 c-3 -3 -12 -4 -19 -1 -8 3 -5 6 6 6 11
1 17 -2 13 -5z m-8304 -11 c-7 -2 -19 -2 -25 0 -7 3 -2 5 12 5 14 0 19 -2 13
-5z m2974 -165 c-2 -35 -3 -9 -3 57 0 66 1 94 3 63 2 -32 2 -86 0 -120z m3905
158 c10 -7 21 -27 24 -44 5 -25 1 -36 -21 -57 -45 -46 -115 -18 -115 46 0 51
71 86 112 55z m1485 8 c-3 -3 -12 -4 -19 -1 -8 3 -5 6 6 6 11 1 17 -2 13 -5z
m-8424 -11 c-7 -2 -19 -2 -25 0 -7 3 -2 5 12 5 14 0 19 -2 13 -5z m5424 -160
c-2 -32 -3 -6 -3 57 0 63 1 89 3 58 2 -32 2 -84 0 -115z m3050 161 c-3 -3 -12
-4 -19 -1 -8 3 -5 6 6 6 11 1 17 -2 13 -5z m-8530 -10 c-3 -3 -12 -4 -19 -1
-8 3 -5 6 6 6 11 1 17 -2 13 -5z m8590 0 c-3 -3 -12 -4 -19 -1 -8 3 -5 6 6 6
11 1 17 -2 13 -5z m-7606 -57 c9 -35 8 -44 -9 -66 -30 -40 -60 -52 -96 -37
-59 24 -69 91 -21 131 18 15 35 19 70 17 43 -4 45 -6 56 -45z m826 31 c-3 -8
-6 -5 -6 6 -1 11 2 17 5 13 3 -3 4 -12 1 -19z m4228 -40 c14 -6 25 -15 25 -20
0 -5 -13 -2 -30 7 -45 23 -41 34 5 13z m-4105 -27 c-8 -5 -26 -11 -40 -15 -21
-5 -20 -3 5 9 32 15 60 20 35 6z m4170 -57 c0 -30 4 -54 9 -54 8 0 11 -13 30
-148 10 -69 -7 -169 -27 -164 -7 1 -12 -7 -12 -18 0 -11 -5 -20 -11 -20 -8 0
-8 -4 -1 -12 11 -15 11 -82 0 -94 -5 -4 -8 11 -8 34 0 22 -4 43 -9 46 -5 3 -7
14 -4 25 5 21 -22 32 -52 20 -16 -6 -13 -8 15 -10 l35 -2 -32 -4 c-18 -2 -33
-8 -33 -13 0 -5 -7 -7 -14 -4 -12 5 -15 38 -15 187 1 99 5 191 10 205 l9 24
44 -25 c25 -14 47 -22 50 -19 10 10 6 92 -4 92 -5 0 -10 4 -10 10 0 5 7 7 15
4 11 -5 15 -21 15 -60z m-60 41 c14 -8 21 -14 15 -14 -5 0 -21 6 -35 14 -14 8
-20 14 -15 14 6 0 21 -6 35 -14z m-4713 -11 c-3 -3 -12 -4 -19 -1 -8 3 -5 6 6
6 11 1 17 -2 13 -5z m-1490 -10 c-3 -3 -12 -4 -19 -1 -8 3 -5 6 6 6 11 1 17
-2 13 -5z m1423 -9 c-19 -7 -42 -13 -50 -13 -8 0 1 6 20 13 19 7 42 13 50 13
8 0 -1 -6 -20 -13z m7487 9 c-3 -3 -12 -4 -19 -1 -8 3 -5 6 6 6 11 1 17 -2 13
-5z m-8964 -11 c-7 -2 -19 -2 -25 0 -7 3 -2 5 12 5 14 0 19 -2 13 -5z m2237
-8 c-14 -8 -19 -14 -11 -15 8 0 12 -2 9 -5 -3 -3 -13 -2 -23 1 -15 6 -15 8 6
20 13 7 29 13 34 13 6 0 -1 -6 -15 -14z m4020 0 c33 -19 21 -19 -21 0 -19 8
-27 14 -19 14 8 0 26 -6 40 -14z m1287 9 c-3 -3 -12 -4 -19 -1 -8 3 -5 6 6 6
11 1 17 -2 13 -5z m-5290 -36 c-3 -8 -6 -5 -6 6 -1 11 2 17 5 13 3 -3 4 -12 1
-19z m5675 -18 c38 -38 40 -43 35 -86 -3 -32 -13 -55 -31 -73 -23 -22 -35 -26
-87 -26 -56 0 -63 3 -85 30 -68 85 -18 195 90 195 32 0 45 -7 78 -40z m-5729
5 c31 -10 57 -22 57 -27 0 -10 -44 0 -79 18 -14 8 -34 14 -43 14 -9 0 -20 5
-24 11 -7 12 -5 12 89 -16z m-866 9 c-3 -3 -12 -4 -19 -1 -8 3 -5 6 6 6 11 1
17 -2 13 -5z m718 -7 c-21 -16 -27 -87 -7 -94 19 -8 14 -23 -8 -23 -18 0 -20
7 -20 55 0 41 4 56 18 64 25 15 39 13 17 -2z m4739 -15 c3 -4 -8 -13 -25 -19
-16 -6 -29 -7 -29 -2 0 5 7 9 15 9 8 0 15 5 15 10 0 12 17 13 24 2z m186 -42
c0 -27 -3 -50 -7 -50 -5 0 -6 22 -5 50 5 65 12 65 12 0z m-4983 2 c3 -20 -1
-22 -37 -20 -32 1 -40 5 -40 21 0 15 5 18 25 15 14 -3 25 -1 25 4 0 19 23 1
27 -20z m5027 13 c-4 -8 -8 -15 -10 -15 -2 0 -4 7 -4 15 0 8 4 15 10 15 5 0 7
-7 4 -15z m683 -47 c-2 -13 -4 -3 -4 22 0 25 2 35 4 23 2 -13 2 -33 0 -45z
m-7793 7 c19 -5 31 -4 36 5 6 10 13 3 24 -23 8 -20 21 -37 29 -37 12 0 14 -18
13 -87 -1 -49 -5 -98 -8 -109 -6 -21 -4 -21 29 -12 50 14 51 4 1 -11 -24 -7
-49 -18 -55 -23 -16 -13 -18 -230 -3 -257 14 -27 -10 -56 -38 -47 -29 10 -30
56 -2 63 18 5 20 14 20 107 0 57 -3 105 -6 109 -3 3 -30 -3 -60 -14 -30 -11
-63 -18 -74 -14 -13 4 -20 2 -20 -6 0 -8 -7 -6 -19 5 -11 10 -26 19 -35 20
-35 5 -133 125 -108 133 6 3 12 21 12 41 0 56 39 111 101 144 55 28 90 31 163
13z m2676 -10 c17 -21 9 -48 -20 -62 -20 -10 -27 -9 -42 4 -21 19 -23 44 -6
61 16 16 53 15 68 -3z m-2162 -53 c3 -16 -2 -22 -17 -22 -24 0 -35 15 -27 36
9 23 40 13 44 -14z m1757 -20 c-16 -9 -32 -17 -35 -17 -3 -1 -18 -7 -34 -14
-16 -6 -31 -10 -33 -7 -9 9 87 54 117 55 8 0 2 -7 -15 -17z m4686 -12 c24 -11
37 -19 29 -19 -15 0 -91 38 -79 39 4 0 26 -9 50 -20z m-7278 -31 c16 -26 1
-49 -32 -49 -35 0 -45 12 -37 46 5 20 12 25 33 22 14 -2 31 -10 36 -19z m2649
1 c10 -8 18 -24 18 -35 0 -11 -4 -15 -8 -10 -4 6 -21 18 -38 27 -29 16 -32 16
-67 -2 -20 -11 -43 -20 -49 -20 -7 1 6 10 30 22 23 11 42 24 42 28 0 14 53 6
72 -10z m-184 -14 c-14 -10 -18 -28 -18 -84 0 -63 2 -71 18 -66 14 5 15 4 2
-5 -31 -22 -37 -12 -39 68 -2 67 1 81 16 90 26 15 41 13 21 -3z m4902 4 c8 -5
11 -10 5 -10 -5 0 -17 5 -25 10 -8 5 -10 10 -5 10 6 0 17 -5 25 -10z m-6510
-20 c-8 -5 -22 -9 -30 -9 -10 0 -8 3 5 9 27 12 43 12 25 0z m905 -20 c-3 -5
-12 -10 -18 -10 -7 0 -6 4 3 10 19 12 23 12 15 0z m1193 -192 c-2 -189 -2
-194 -8 -76 -5 127 -2 278 6 278 2 0 3 -91 2 -202z m3909 -96 c-1 -53 -3 -7
-3 103 0 110 2 154 3 97 2 -57 2 -147 0 -200z m-4311 262 c-27 -13 -51 -23
-53 -21 -6 6 69 46 87 46 8 0 -7 -11 -34 -25z m521 -6 c-3 -7 -5 -2 -5 12 0
14 2 19 5 13 2 -7 2 -19 0 -25z m4178 22 c3 -6 -1 -7 -9 -4 -18 7 -21 14 -7
14 6 0 13 -4 16 -10z m-5536 -87 c-1 -66 -2 -67 -9 -23 -7 41 -4 90 6 90 2 0
3 -30 3 -67z m4736 15 c14 -12 21 -27 18 -36 -4 -10 -2 -13 5 -8 18 11 15 -95
-2 -129 l-15 -28 -6 26 c-8 30 -30 52 -54 52 -12 0 -17 12 -19 44 -5 66 2 77
35 51 25 -19 28 -20 31 -5 4 19 -22 52 -49 60 -11 4 -19 11 -19 17 0 11 36
-10 75 -44z m-3817 17 c-3 -3 -9 2 -12 12 -6 14 -5 15 5 6 7 -7 10 -15 7 -18z
m-78 0 c0 -2 -13 -11 -30 -20 -38 -19 -40 -11 -2 9 31 17 32 18 32 11z m3865
-25 c21 -23 11 -27 -12 -5 -8 8 -19 13 -24 10 -5 -4 -9 -1 -9 4 0 18 26 12 45
-9z m-3765 -10 c6 -11 8 -20 6 -20 -3 0 -10 9 -16 20 -6 11 -8 20 -6 20 3 0
10 -9 16 -20z m6727 4 c-3 -3 -12 -4 -19 -1 -8 3 -5 6 6 6 11 1 17 -2 13 -5z
m-6733 -46 c6 -4 7 -10 3 -15 -10 -9 -27 16 -26 37 1 13 1 13 6 0 3 -8 11 -18
17 -22z m4726 20 c0 -4 -4 -8 -9 -8 -6 0 -12 4 -15 8 -3 5 1 9 9 9 8 0 15 -4
15 -9z m2068 -135 c-2 -149 -5 -131 -10 50 -2 53 0 97 5 97 4 0 6 -66 5 -147z
m-1341 105 c-3 -7 -5 -2 -5 12 0 14 2 19 5 13 2 -7 2 -19 0 -25z m-5635 -24
c-17 -12 -22 -25 -22 -60 0 -34 3 -43 13 -38 8 5 7 2 -2 -9 -19 -24 -23 -17
-23 48 -1 57 8 75 42 75 9 0 7 -5 -8 -16z m4906 -58 l-2 -61 -3 54 c-3 36 -10
59 -21 67 -15 12 -15 12 6 7 20 -5 22 -11 20 -67z m-5408 40 c0 -5 -150 -76
-159 -76 -7 1 141 79 152 80 4 0 7 -2 7 -4z m4461 -33 c13 -16 12 -17 -3 -4
-10 7 -18 15 -18 17 0 8 8 3 21 -13z m196 -9 c-3 -3 -12 -4 -19 -1 -8 3 -5 6
6 6 11 1 17 -2 13 -5z m-4658 -18 c-10 -9 -69 -36 -69 -32 0 7 52 35 64 36 5
0 7 -2 5 -4z m571 -16 c6 -11 8 -25 5 -30 -10 -16 -55 -12 -61 5 -16 41 35 64
56 25z m-787 -27 l-33 -17 0 -90 c0 -89 20 -180 34 -157 4 6 13 11 19 11 7 0
-1 -9 -18 -20 -28 -18 -31 -26 -36 -92 l-6 -73 1 83 c1 55 -3 82 -10 82 -11 0
-24 22 -24 41 0 5 7 9 15 9 12 0 15 18 15 105 0 104 0 104 28 119 15 8 32 15
37 15 6 0 -5 -8 -22 -16z m6327 2 l30 -16 -2 -107 -2 -107 -3 106 -4 106 -32
16 c-18 9 -28 16 -24 16 4 1 21 -6 37 -14z m-5416 -15 c7 -7 5 -10 -7 -10 -9
0 -17 4 -17 9 0 9 -41 3 -50 -8 -3 -3 -21 -15 -40 -25 l-35 -19 29 27 c45 43
93 53 120 26z m4054 -61 l-3 -64 -5 72 c-3 40 -1 68 3 64 4 -4 7 -37 5 -72z
m-4883 51 c-3 -5 -12 -10 -18 -10 -7 0 -6 4 3 10 19 12 23 12 15 0z m-467 -23
c4 -20 -25 -34 -40 -19 -15 15 -1 44 19 40 10 -2 19 -11 21 -21z m627 -2 c0
-25 -42 -34 -51 -11 -5 14 -9 14 -35 0 -16 -8 -29 -12 -29 -9 0 2 17 14 38 25
46 24 77 22 77 -5z m669 -11 c3 -8 2 -12 -4 -9 -6 3 -10 10 -10 16 0 14 7 11
14 -7z m526 7 c0 -5 -12 -17 -27 -26 l-28 -18 24 27 c26 28 31 31 31 17z
m-723 -49 c-12 -13 -17 -37 -17 -85 0 -59 2 -66 18 -61 14 5 14 3 -2 -10 -11
-9 -22 -13 -25 -8 -3 4 -17 7 -31 7 -18 0 -26 6 -28 23 -4 27 22 40 44 21 14
-11 15 -6 13 49 -2 52 1 65 17 76 25 19 32 11 11 -12z m743 -7 c-10 -13 -10
-19 4 -33 22 -25 20 -42 -4 -42 -23 0 -41 31 -22 38 7 2 10 8 7 12 -6 10 16
52 24 45 2 -3 -2 -11 -9 -20z m4168 -78 l-2 -82 -3 79 c-3 60 -8 83 -21 93
-15 13 -14 13 6 3 20 -10 22 -17 20 -93z m-4773 85 c6 -4 17 -16 25 -27 8 -11
10 -17 6 -13 -5 4 -15 0 -22 -10 -11 -15 -16 -15 -35 -4 -15 10 -24 11 -32 3
-27 -27 -21 -8 7 24 33 37 36 39 51 27z m-1575 -28 c11 -12 10 -18 -3 -31 -13
-13 -19 -14 -31 -3 -19 15 -21 36 -3 43 20 9 24 8 37 -9z m558 -11 c3 -19 -1
-23 -22 -23 -28 0 -41 14 -32 36 9 24 50 13 54 -13z m1079 12 c0 -8 -4 -12 -9
-9 -5 3 -6 10 -3 15 9 13 12 11 12 -6z m4053 -57 c0 -38 -5 -34 -13 10 -4 21
-3 31 3 27 6 -3 10 -20 10 -37z m-6215 23 c-6 -5 -21 -11 -35 -15 -21 -5 -20
-3 5 9 35 17 42 18 30 6z m1141 -39 c-4 -3 -14 2 -24 12 -16 18 -16 18 6 6 13
-6 21 -14 18 -18z m229 4 c0 -27 -29 -43 -49 -27 -12 10 -13 18 -5 33 13 25
54 21 54 -6z m-1463 -2 l-33 -15 3 -94 c2 -52 0 -95 -4 -95 -5 0 -8 45 -8 99
0 99 0 99 28 109 41 16 52 12 14 -4z m993 -25 c0 -17 -6 -24 -20 -24 -23 0
-33 34 -13 46 20 13 33 5 33 -22z m365 27 c0 -2 -7 -7 -16 -10 -8 -3 -12 -2
-9 4 6 10 25 14 25 6z m7669 -10 c8 -9 11 -47 8 -107 l-3 -94 -2 97 c-2 80 -5
99 -19 107 -10 6 -13 11 -7 11 6 0 17 -6 23 -14z m-1012 -17 c16 -16 5 -39
-18 -39 -12 0 -19 7 -19 18 0 31 17 41 37 21z m-7815 -25 l30 -16 -27 -14
c-35 -18 -54 -18 -61 1 -6 13 11 45 23 45 2 0 18 -7 35 -16z m7583 -3 c0 -8
-8 -19 -17 -25 -22 -13 -44 5 -34 29 7 20 51 16 51 -4z m-1197 -19 c3 -16 -2
-22 -17 -22 -24 0 -35 15 -27 36 9 23 40 13 44 -14z m1085 -1 c26 -14 27 -17
25 -85 l-2 -71 -5 68 c-5 61 -9 69 -36 88 -32 22 -27 22 18 0z m1235 -7 c4
-27 -26 -40 -46 -20 -13 13 -13 18 -2 31 18 21 44 15 48 -11z m-1745 -11 c4
-2 7 -11 7 -19 0 -10 -12 -14 -39 -14 -44 0 -59 13 -41 35 11 13 47 12 73 -2z
m-5106 -21 c-9 -10 -17 -41 -20 -72 l-3 -55 -2 62 c-2 50 1 64 16 72 25 15 27
13 9 -7z m4913 -78 c0 -72 -1 -75 -22 -72 -30 4 -37 38 -9 45 18 4 21 13 21
54 0 27 2 49 5 49 3 0 5 -34 5 -76z m-4213 55 c15 -15 5 -39 -17 -39 -22 0
-32 24 -17 39 6 6 14 11 17 11 3 0 11 -5 17 -11z m-969 -37 c3 -16 -2 -22 -17
-22 -24 0 -35 15 -27 36 9 23 40 13 44 -14z m6580 -10 c3 -17 -2 -22 -18 -22
-25 0 -38 29 -19 41 20 13 34 6 37 -19z m-7818 -29 c0 -9 -5 -8 -18 5 -10 9
-27 23 -38 29 -10 7 -2 5 19 -4 20 -9 37 -23 37 -30z m6820 11 c0 -19 -5 -24
-24 -24 -29 0 -42 35 -18 49 23 13 42 2 42 -25z m-6583 5 c15 -15 5 -39 -17
-39 -22 0 -32 24 -17 39 6 6 14 11 17 11 3 0 11 -5 17 -11z m-332 -9 c-3 -5
-12 -10 -18 -10 -7 0 -6 4 3 10 19 12 23 12 15 0z m-817 -26 c3 -23 -18 -37
-43 -28 -16 6 -20 35 -8 48 14 14 48 1 51 -20z m2534 1 c10 -22 26 -29 65 -28
7 1 11 -3 8 -7 -3 -5 1 -10 7 -13 7 -2 10 -7 7 -11 -3 -3 -22 1 -43 9 -20 9
-47 13 -61 9 -14 -3 -32 -1 -39 5 -11 9 -25 9 -60 0 -26 -6 -49 -9 -52 -6 -3
2 17 10 45 17 34 8 52 18 56 31 9 29 53 25 67 -6z m4368 5 c0 -13 -7 -20 -20
-20 -13 0 -20 7 -20 20 0 13 7 20 20 20 13 0 20 -7 20 -20z m-152 -37 c5 -17
-26 -29 -40 -15 -6 6 -7 15 -3 22 9 14 37 9 43 -7z m-5768 -7 c0 -3 -4 -8 -10
-11 -5 -3 -10 -1 -10 4 0 6 5 11 10 11 6 0 10 -2 10 -4z m1355 -16 c3 -6 -1
-7 -9 -4 -18 7 -21 14 -7 14 6 0 13 -4 16 -10z m5486 -7 c13 -16 12 -17 -3 -4
-10 7 -18 15 -18 17 0 8 8 3 21 -13z m-5513 -2 c11 -6 9 -9 -5 -13 -12 -3 -20
0 -20 8 0 16 6 17 25 5z m6159 -17 c8 -22 -18 -37 -36 -20 -7 8 -10 19 -7 25
10 16 36 13 43 -5z m-7308 -8 c25 -30 -22 -76 -59 -56 -23 12 -25 23 -10 51
12 22 52 25 69 5z m5899 -9 c4 -22 -27 -35 -38 -16 -10 15 7 42 24 36 6 -2 12
-11 14 -20z m-5214 -2 c17 -17 116 -21 116 -5 0 12 25 13 48 1 9 -5 28 -14 42
-19 25 -11 25 -11 -7 -11 -17 -1 -35 -6 -38 -12 -4 -6 -19 -7 -35 -4 -16 4
-50 -2 -83 -13 -31 -10 -61 -16 -67 -12 -6 4 10 13 37 19 74 20 81 25 39 29
-21 2 -43 -1 -49 -7 -29 -29 -73 3 -47 34 16 19 25 19 44 0z m571 -15 c-18
-19 -17 -20 6 -20 19 0 21 -2 9 -10 -12 -8 -11 -10 8 -10 12 0 22 6 23 13 0 9
2 9 6 0 3 -10 10 -10 25 -2 16 8 19 8 13 -1 -6 -9 1 -10 24 -5 21 4 37 2 48
-7 14 -11 14 -8 -2 22 l-17 35 21 -22 c12 -13 26 -23 32 -23 16 0 39 -26 39
-44 0 -19 -49 -33 -59 -17 -5 8 -32 6 -99 -6 -78 -14 -92 -19 -92 -35 0 -13 4
-17 13 -12 7 5 6 0 -3 -11 -14 -17 -15 -17 -18 13 -3 31 -4 32 -45 26 -23 -3
-48 -7 -54 -10 -7 -2 -13 1 -13 6 0 4 24 12 53 17 47 7 52 11 52 33 0 22 -5
25 -45 28 -66 5 -78 24 -12 21 44 -2 55 1 68 19 8 12 20 22 26 22 6 0 3 -9 -7
-20z m4913 -88 l-2 -87 -3 80 c-3 57 -9 85 -21 99 -16 18 -16 18 6 7 20 -11
22 -18 20 -99z m-5613 72 c-11 -8 -26 -19 -33 -23 -9 -5 -12 -30 -10 -87 l3
-80 180 28 c99 15 189 27 200 25 11 -1 -69 -17 -179 -35 -122 -20 -204 -38
-213 -47 -17 -17 -63 -20 -63 -5 0 7 -25 9 -75 4 -66 -6 -75 -5 -70 9 4 9 22
17 45 19 21 2 37 0 34 -3 -8 -14 52 -6 68 8 10 9 26 13 38 10 18 -5 20 0 20
44 0 27 -1 49 -2 49 -2 0 -25 -7 -52 -15 -27 -8 -54 -15 -60 -14 -17 1 78 35
107 38 4 1 7 14 7 30 0 22 7 34 28 44 36 20 52 20 27 1z m6316 -5 l29 -20 -2
-102 -2 -102 -5 103 c-6 100 -7 103 -36 122 -16 11 -26 20 -22 20 5 0 22 -9
38 -21z m-328 -1 c7 -21 -4 -38 -23 -38 -23 0 -32 13 -24 34 7 19 40 21 47 4z
m-7243 -2 c0 -3 -27 -17 -60 -32 -66 -29 -79 -54 -30 -54 24 0 35 -7 48 -30
16 -28 21 -30 76 -30 74 0 70 -9 -5 -11 -32 -1 -61 -8 -72 -17 -9 -8 -31 -15
-47 -15 l-30 0 -2 -81 -2 -81 -7 95 c-17 206 -20 196 54 230 62 29 77 34 77
26z m608 -21 c-3 -3 -9 2 -12 12 -6 14 -5 15 5 6 7 -7 10 -15 7 -18z m8270 -5
l52 -23 -2 -151 -2 -151 -6 148 -5 147 -60 30 c-67 34 -58 33 23 0z m250 7 c4
-20 -25 -34 -40 -19 -15 15 -1 44 19 40 10 -2 19 -11 21 -21z m-7965 6 c-7 -2
-19 -2 -25 0 -7 3 -2 5 12 5 14 0 19 -2 13 -5z m432 -3 c-11 -5 -27 -9 -35 -9
-9 0 -8 4 5 9 11 5 27 9 35 9 9 0 8 -4 -5 -9z m5933 -32 c3 -22 -1 -28 -16
-28 -25 0 -44 23 -36 44 11 28 48 16 52 -16z m-6208 2 c-34 -11 -60 -11 -35 0
11 5 29 8 40 8 16 0 15 -2 -5 -8z m-1483 -26 c8 -21 -19 -46 -40 -38 -17 6
-23 35 -10 47 12 13 44 7 50 -9z m1420 10 c-3 -3 -12 -4 -19 -1 -8 3 -5 6 6 6
11 1 17 -2 13 -5z m6166 -18 c6 -15 -11 -36 -29 -36 -14 0 -27 28 -18 41 8 14
41 11 47 -5z m1082 4 c3 -5 12 -7 19 -4 7 3 19 -3 27 -12 11 -14 11 -18 -6
-30 -13 -9 -22 -11 -29 -4 -5 5 -20 10 -32 10 -12 0 -24 6 -27 14 -10 25 33
49 48 26z m-1727 -44 c-2 -13 -12 -22 -26 -24 -29 -4 -42 26 -18 44 24 17 48
6 44 -20z m-4974 18 c-6 -3 -9 -16 -6 -29 3 -21 0 -25 -18 -25 -13 0 -24 8
-27 20 -4 13 -14 20 -32 21 -22 1 -21 3 9 9 39 8 91 11 74 4z m-764 -24 c18
-12 2 -12 -25 0 -13 6 -15 9 -5 9 8 0 22 -4 30 -9z m-852 -9 c21 -13 10 -46
-17 -49 -29 -4 -43 15 -30 40 11 20 26 23 47 9z m1706 0 c4 -5 -3 -7 -14 -4
-23 6 -26 13 -6 13 8 0 17 -4 20 -9z m-1644 -16 c-30 -17 -40 -18 -40 -6 0 8
22 16 55 19 6 1 -1 -5 -15 -13z m860 -23 c-7 -3 -19 3 -28 13 -16 15 -15 16
12 4 15 -7 23 -15 16 -17z m-797 11 c-7 -2 -21 -2 -30 0 -10 3 -4 5 12 5 17 0
24 -2 18 -5z m370 -8 c31 -6 35 -29 10 -57 -30 -33 -52 -19 -67 44 -6 28 -9
27 57 13z m1297 6 c0 -6 -9 -16 -19 -23 -13 -9 -21 -29 -24 -58 l-4 -45 -1 49
c-1 34 3 55 15 68 17 20 33 24 33 9z m4888 -75 l-1 -41 -4 40 c-3 22 -14 51
-26 65 l-22 25 28 -24 c22 -20 27 -32 25 -65z m841 65 c8 -14 7 -22 -3 -30
-18 -15 -46 -3 -46 18 0 35 33 43 49 12z m1109 -4 c4 -20 -25 -34 -40 -19 -15
15 -1 44 19 40 10 -2 19 -11 21 -21z m300 -20 c4 -20 -25 -34 -40 -19 -15 15
-1 44 19 40 10 -2 19 -11 21 -21z m-8154 0 c15 -11 17 -17 7 -35 -12 -23 -20
-26 -45 -16 -19 7 -21 50 -3 57 19 8 22 8 41 -6z m278 -74 c-27 -24 -32 -36
-35 -83 l-3 -55 -2 60 c-2 54 1 61 26 82 39 32 52 28 14 -4z m5592 11 c11 -28
6 -41 -17 -51 -30 -14 -57 1 -57 31 0 12 3 26 7 29 13 13 61 7 67 -9z m733 -4
c14 -11 22 -20 17 -20 -12 1 -61 39 -51 40 5 0 20 -9 34 -20z m1570 -13 c-5
-18 -57 -22 -57 -5 0 8 5 19 12 26 14 14 51 -3 45 -21z m-505 -13 c15 -33 1
-58 -36 -62 -33 -4 -56 13 -56 42 0 51 71 66 92 20z m-1035 -81 c-2 -16 -4 -3
-4 27 0 30 2 43 4 28 2 -16 2 -40 0 -55z m-6567 47 c8 -5 11 -10 5 -10 -5 0
-17 5 -25 10 -8 5 -10 10 -5 10 6 0 17 -5 25 -10z m6394 4 c22 -8 20 -31 -3
-43 -23 -13 -45 8 -35 33 7 17 14 19 38 10z m-5957 -19 c34 -24 7 -95 -36 -95
-27 0 -61 30 -61 52 0 49 54 73 97 43z m7918 -15 c0 -18 -33 -26 -47 -12 -6 6
-7 15 -3 22 10 16 50 8 50 -10z m-1286 1 c19 -12 6 -41 -19 -41 -13 0 -20 7
-20 18 0 31 14 39 39 23z m-281 -27 c4 -26 -20 -37 -43 -21 -10 8 -14 19 -9
30 9 25 48 18 52 -9z m-7873 -29 l-60 -34 -6 -98 -5 -98 -2 100 -2 100 58 32
c31 17 62 32 67 32 6 0 -17 -15 -50 -34z m584 31 c-2 -2 -15 -9 -29 -15 -24
-11 -24 -11 -6 3 16 13 49 24 35 12z m8344 -31 l57 -30 -2 -100 -2 -100 -5 98
-6 98 -60 35 c-71 42 -61 41 18 -1z m-553 0 c0 -20 -5 -25 -25 -25 -20 0 -25
5 -25 25 0 20 5 25 25 25 20 0 25 -5 25 -25z m-7862 -11 c4 -26 -20 -37 -44
-20 -24 18 -11 48 18 44 14 -2 24 -11 26 -24z m8307 1 c0 -30 -39 -27 -43 3
-3 20 0 23 20 20 15 -2 23 -10 23 -23z m-1531 -14 c13 -14 14 -24 6 -45 -12
-33 -34 -42 -66 -28 -33 16 -34 69 -1 82 33 13 42 12 61 -9z m-7029 -1 c3 -5
1 -10 -4 -10 -6 0 -11 5 -11 10 0 6 2 10 4 10 3 0 8 -4 11 -10z m7095 -29 c0
-5 -9 -7 -20 -4 -11 3 -20 7 -20 9 0 2 9 4 20 4 11 0 20 -4 20 -9z m175 -31
c-3 -5 -1 -10 6 -10 7 0 10 -2 7 -5 -3 -4 -19 -3 -34 1 l-29 8 25 7 c14 4 26
7 28 8 2 1 0 -3 -3 -9z m95 -15 c7 -8 10 -23 8 -33 -3 -10 1 -24 9 -31 8 -7
11 -16 8 -19 -4 -4 -11 1 -16 11 -6 9 -21 17 -35 17 -28 0 -48 37 -32 58 14
16 43 15 58 -3z m-6318 -41 l-33 -26 2 -100 c1 -54 -1 -102 -5 -105 -6 -6 -8
42 -7 154 0 45 4 57 28 78 15 13 33 24 38 25 6 0 -5 -12 -23 -26z m-882 -3
c15 -29 13 -39 -14 -56 -42 -27 -89 13 -66 56 14 26 66 26 80 0z m-230 -31
c18 -43 -7 -80 -53 -80 -40 0 -57 15 -57 51 0 37 24 59 65 59 27 0 35 -5 45
-30z m7050 5 c10 -12 10 -18 0 -30 -17 -21 -37 -19 -50 4 -8 16 -6 22 7 30 24
14 28 13 43 -4z m75 -3 c-3 -3 -11 0 -18 7 -9 10 -8 11 6 5 10 -3 15 -9 12
-12z m-5380 -33 c9 -28 -16 -53 -44 -44 -20 6 -29 43 -14 58 15 15 52 6 58
-14z m6479 5 c26 -10 20 -44 -8 -44 -28 0 -40 14 -32 35 6 16 16 18 40 9z
m750 -3 c10 -16 -5 -41 -24 -41 -23 0 -34 16 -26 35 6 16 42 20 50 6z m-1169
-56 c0 -30 -39 -27 -43 3 -3 20 0 23 20 20 15 -2 23 -10 23 -23z m1199 -31 c7
-19 -10 -44 -29 -44 -7 0 -18 7 -25 15 -10 12 -10 18 0 30 16 20 46 19 54 -1z
m-434 -13 c0 -23 -14 -41 -30 -41 -23 0 -34 16 -26 35 6 16 56 21 56 6z m-542
-27 c3 -23 -18 -37 -43 -28 -16 6 -20 35 -8 48 14 14 48 1 51 -20z m-581 -31
c-3 -10 -5 -2 -5 17 0 19 2 27 5 18 2 -10 2 -26 0 -35z m-7634 -43 c-34 -22
-66 -40 -70 -40 -4 0 19 18 52 40 33 22 65 39 70 40 6 0 -18 -18 -52 -40z
m8906 3 c57 -38 71 -51 71 -68 -1 -5 -5 -2 -11 8 -6 9 -38 35 -72 57 -34 22
-58 40 -53 40 5 0 34 -17 65 -37z m-7607 -11 c-29 -25 -32 -32 -34 -87 l-2
-60 -3 59 c-4 55 -2 61 28 92 18 19 35 31 38 28 3 -3 -9 -18 -27 -32z m6336
-81 l-2 -56 -3 55 c-3 32 -11 63 -21 75 -17 20 -17 20 6 1 18 -16 22 -28 20
-75z"/>
<path d="M1688 5333 c7 -3 16 -2 19 1 4 3 -2 6 -13 5 -11 0 -14 -3 -6 -6z"/>
<path d="M2060 5310 c-12 -8 -12 -10 5 -10 11 0 27 5 35 10 12 8 12 10 -5 10
-11 0 -27 -5 -35 -10z"/>
<path d="M1790 5210 c-9 -6 -10 -10 -3 -10 6 0 15 5 18 10 8 12 4 12 -15 0z"/>
<path d="M1955 5090 c28 -12 37 -12 30 0 -3 6 -16 10 -28 9 -21 0 -21 -1 -2
-9z"/>
<path d="M1815 5062 c-33 -24 -35 -27 -19 -39 10 -7 12 -13 6 -13 -7 0 -12 -4
-12 -10 0 -5 15 -7 33 -5 l32 5 -32 -12 c-18 -6 -33 -17 -33 -25 0 -11 5 -11
30 2 40 21 80 36 80 30 0 -3 -21 -16 -47 -29 l-48 -24 133 -1 c72 0 132 2 132
5 0 2 -7 16 -16 30 -14 21 -14 24 -1 18 8 -3 17 -14 20 -25 4 -13 14 -19 32
-19 24 0 26 2 15 15 -7 9 -19 14 -27 11 -8 -3 -11 -1 -8 4 4 6 -15 20 -42 31
-40 17 -53 19 -79 10 -17 -6 -41 -11 -55 -10 -20 0 -18 2 14 16 20 8 37 18 37
22 0 13 -55 39 -82 39 -15 0 -43 -12 -63 -26z"/>
<path d="M2086 5078 c3 -4 9 -8 15 -8 5 0 9 4 9 8 0 5 -7 9 -15 9 -8 0 -12 -4
-9 -9z"/>
<path d="M1740 5005 c-7 -8 -15 -13 -19 -11 -4 3 -8 -4 -8 -16 -1 -13 3 -18
13 -14 8 3 14 1 14 -3 0 -5 7 -11 15 -15 12 -4 15 3 15 34 0 42 -9 50 -30 25z"/>
<path d="M1708 4933 c7 -3 16 -2 19 1 4 3 -2 6 -13 5 -11 0 -14 -3 -6 -6z"/>
<path d="M1734 4905 c-4 -8 -14 -15 -25 -15 -24 0 -69 -21 -69 -32 0 -5 29 -8
65 -7 l65 2 0 34 c0 35 -25 48 -36 18z m16 -35 c0 -5 -2 -10 -4 -10 -3 0 -8 5
-11 10 -3 6 -1 10 4 10 6 0 11 -4 11 -10z"/>
<path d="M1792 4883 l3 -38 85 -3 85 -2 -25 19 c-37 30 -104 61 -129 61 -20 0
-22 -5 -19 -37z"/>
<path d="M1910 4895 c0 -9 89 -53 118 -58 47 -9 43 19 -5 32 -73 20 -113 29
-113 26z"/>
<path d="M2070 4844 c0 -8 5 -12 10 -9 6 4 8 11 5 16 -9 14 -15 11 -15 -7z"/>
<path d="M1790 4825 c0 -2 14 -11 30 -20 17 -9 30 -20 30 -26 0 -7 -11 -4 -26
6 -26 17 -26 17 5 -29 29 -42 33 -45 56 -34 32 15 32 24 -2 36 -25 9 -25 11
-6 11 12 1 25 -3 28 -9 9 -15 41 -12 55 5 10 12 10 15 0 15 -6 0 -23 9 -37 20
-33 26 -18 26 25 0 29 -18 36 -19 59 -6 24 12 25 14 7 19 -25 8 -224 19 -224
12z"/>
<path d="M1790 4700 c0 -35 2 -36 36 -13 l26 16 -24 13 c-34 19 -38 17 -38
-16z"/>
<path d="M2070 4570 c0 -5 5 -10 11 -10 5 0 7 5 4 10 -3 6 -8 10 -11 10 -2 0
-4 -4 -4 -10z"/>
<path d="M2140 4515 c0 -8 4 -15 8 -15 5 0 9 7 9 15 0 8 -4 15 -9 15 -4 0 -8
-7 -8 -15z"/>
<path d="M2085 4511 c-6 -11 13 -26 22 -17 4 3 1 6 -6 6 -7 0 -9 5 -6 10 3 6
4 10 1 10 -3 0 -7 -4 -11 -9z"/>
<path d="M1700 4476 c0 -2 7 -9 15 -16 9 -7 15 -8 15 -2 0 5 -7 12 -15 16 -8
3 -15 4 -15 2z"/>
<path d="M2139 4473 c0 -5 -2 -18 -5 -30 -2 -12 3 -28 11 -36 8 -8 11 -18 7
-22 -4 -5 -1 -5 6 -1 15 9 16 56 1 56 -6 0 -8 -7 -5 -16 3 -8 2 -12 -4 -9 -5
3 -7 19 -3 35 3 17 3 30 -1 30 -3 0 -6 -3 -7 -7z"/>
<path d="M2086 4458 c3 -5 10 -6 15 -3 13 9 11 12 -6 12 -8 0 -12 -4 -9 -9z"/>
<path d="M1760 4451 c0 -6 5 -13 10 -16 6 -3 10 1 10 9 0 9 -4 16 -10 16 -5 0
-10 -4 -10 -9z"/>
<path d="M2060 4441 c0 -6 4 -13 10 -16 6 -3 7 1 4 9 -7 18 -14 21 -14 7z"/>
<path d="M1804 4419 c-8 -13 13 -29 41 -29 17 0 17 -2 5 -10 -13 -8 -12 -10 3
-10 10 0 36 -9 58 -21 23 -11 44 -18 47 -15 3 3 -1 6 -9 6 -12 0 -11 2 1 11
12 8 10 9 -9 4 -15 -5 -21 -4 -17 4 4 5 -7 17 -24 26 -16 8 -30 20 -30 26 0 6
-6 9 -12 6 -7 -2 -21 0 -30 4 -10 6 -19 5 -24 -2z m111 -57 c-3 -3 -11 0 -18
7 -9 10 -8 11 6 5 10 -3 15 -9 12 -12z"/>
<path d="M1798 4283 c7 -3 16 -2 19 1 4 3 -2 6 -13 5 -11 0 -14 -3 -6 -6z"/>
<path d="M450 5241 c0 -12 26 -21 62 -21 26 0 29 2 18 15 -13 16 -80 21 -80 6z"/>
<path d="M2465 5040 c3 -5 16 -10 28 -10 18 0 19 2 7 10 -20 13 -43 13 -35 0z"/>
<path d="M2528 4993 c7 -3 16 -2 19 1 4 3 -2 6 -13 5 -11 0 -14 -3 -6 -6z"/>
<path d="M2589 4937 c16 -16 14 -30 -4 -23 -8 3 -15 1 -15 -5 0 -6 -4 -7 -10
-4 -5 3 -10 1 -10 -5 0 -6 -6 -8 -12 -4 -7 4 -5 -1 4 -12 16 -18 18 -23 18
-44 0 -5 6 -10 13 -10 8 0 14 7 14 15 0 8 -4 15 -9 15 -4 0 -8 5 -8 11 0 6 7
8 16 5 11 -4 18 1 21 14 3 11 9 20 14 20 5 0 9 8 9 18 0 11 -8 17 -26 19 -19
1 -23 -2 -15 -10z"/>
<path d="M2420 4936 c0 -2 7 -6 15 -10 8 -3 15 -1 15 4 0 6 -7 10 -15 10 -8 0
-15 -2 -15 -4z"/>
<path d="M2485 4890 c3 -5 11 -10 16 -10 6 0 7 5 4 10 -3 6 -11 10 -16 10 -6
0 -7 -4 -4 -10z"/>
<path d="M2525 4870 c3 -5 11 -10 16 -10 6 0 7 5 4 10 -3 6 -11 10 -16 10 -6
0 -7 -4 -4 -10z"/>
<path d="M2497 4856 c-4 -11 -1 -13 10 -9 12 5 14 3 8 -7 -5 -9 -4 -11 4 -6 9
6 9 11 0 22 -14 17 -16 17 -22 0z"/>
<path d="M2620 4804 c0 -3 10 -14 22 -23 l21 -18 -32 -1 c-61 -2 -43 -10 28
-14 39 -1 71 0 71 5 0 4 -9 7 -20 7 -10 0 -30 11 -44 25 -23 23 -46 33 -46 19z"/>
<path d="M2448 4753 c12 -2 30 -2 40 0 9 3 -1 5 -23 4 -22 0 -30 -2 -17 -4z"/>
<path d="M7436 4993 c-31 -16 -27 -23 22 -37 19 -7 22 -4 22 23 0 35 -4 36
-44 14z"/>
<path d="M7383 4946 c-25 -12 -45 -53 -45 -91 0 -14 -4 -25 -9 -25 -5 0 -19
-20 -31 -45 -18 -36 -20 -47 -9 -58 10 -10 11 -9 6 6 -5 10 -2 17 5 17 7 0 10
7 6 16 -3 9 -2 12 5 9 5 -4 7 -16 3 -27 -5 -18 -3 -20 12 -14 11 4 33 10 49
12 41 7 105 35 105 46 0 5 -4 6 -10 3 -5 -3 -10 -2 -10 3 0 6 7 12 15 16 10 4
15 -1 15 -15 0 -16 3 -18 19 -9 20 10 22 45 3 45 -6 0 -14 3 -18 7 -4 4 -19 5
-33 2 l-26 -5 24 21 c13 11 21 23 18 26 -6 6 -56 -25 -93 -58 -17 -15 -24 -16
-29 -7 -5 7 -4 10 3 5 5 -3 12 -2 14 3 1 5 20 20 42 35 30 20 35 27 22 32 -9
3 -16 16 -16 28 0 15 3 17 9 8 7 -11 9 -11 14 2 4 9 2 16 -2 16 -5 0 -15 2
-23 4 -7 2 -23 -1 -35 -8z m27 -50 c0 -3 -15 -14 -32 -26 l-33 -22 30 26 c31
27 35 29 35 22z m20 -71 c0 -6 -87 -65 -97 -65 -4 0 14 16 41 35 50 35 56 39
56 30z"/>
<path d="M7530 4680 c0 -5 4 -10 9 -10 6 0 13 5 16 10 3 6 -1 10 -9 10 -9 0
-16 -4 -16 -10z"/>
<path d="M7471 4649 c-18 -11 -31 -22 -28 -25 6 -7 77 28 77 38 0 13 -12 10
-49 -13z"/>
<path d="M7372 4615 c-20 -11 -21 -13 -6 -19 30 -12 4 -22 -66 -27 -32 -2 -33
-2 -7 -6 25 -4 27 -7 15 -21 -7 -9 -8 -13 -3 -11 6 3 26 13 46 22 31 14 69 54
69 72 0 8 -23 4 -48 -10z"/>
<path d="M7430 4574 c-24 -13 -24 -14 -4 -14 12 0 24 7 28 15 3 8 4 15 3 14
-1 -1 -13 -7 -27 -15z"/>
<path d="M7464 4559 c-3 -6 -2 -15 3 -20 5 -5 9 -1 9 11 0 23 -2 24 -12 9z"/>
<path d="M7400 4515 c-7 -8 -9 -15 -6 -15 4 0 14 7 22 15 9 8 11 15 6 15 -5 0
-15 -7 -22 -15z"/>
<path d="M7451 4514 c0 -11 3 -14 6 -6 3 7 2 16 -1 19 -3 4 -6 -2 -5 -13z"/>
<path d="M7555 4242 c-11 -2 -24 -9 -30 -14 -7 -7 -1 -8 20 -3 44 10 53 26 10
17z"/>
<path d="M7420 4180 c-12 -7 -10 -9 8 -7 12 0 22 5 22 9 0 11 -12 10 -30 -2z"/>
<path d="M8001 4826 c-9 -11 -5 -15 24 -20 20 -4 44 -10 53 -13 9 -3 2 6 -17
21 -40 30 -44 31 -60 12z"/>
<path d="M8091 4743 c-22 -18 -22 -18 23 -21 49 -3 68 11 37 27 -27 15 -35 14
-60 -6z"/>
<path d="M8230 4729 c0 -5 11 -9 25 -9 14 0 25 2 25 4 0 2 -11 6 -25 8 -14 3
-25 1 -25 -3z"/>
<path d="M8125 4690 c72 -19 85 -19 85 6 0 11 -16 14 -77 13 l-78 0 70 -19z"/>
<path d="M8035 4613 c-60 -19 -121 -38 -135 -43 -20 -5 -13 -8 37 -14 34 -4
67 -5 72 -1 6 3 38 8 72 12 90 8 163 58 113 77 -26 10 -44 6 -159 -31z"/>
<path d="M8230 4643 c69 -23 100 -31 100 -27 0 9 -69 34 -92 33 -14 0 -17 -3
-8 -6z"/>
<path d="M8220 4611 c0 -27 7 -30 90 -37 92 -9 88 7 -9 36 -83 24 -81 24 -81
1z"/>
<path d="M9215 4771 c-3 -5 4 -12 15 -16 11 -3 27 -13 35 -21 8 -9 23 -14 32
-12 12 2 5 11 -23 31 -44 30 -50 32 -59 18z"/>
<path d="M9450 4695 c-31 -18 -16 -18 30 0 23 9 28 14 15 14 -11 0 -31 -6 -45
-14z"/>
<path d="M9025 4550 c-3 -5 -1 -10 4 -10 6 0 11 5 11 10 0 6 -2 10 -4 10 -3 0
-8 -4 -11 -10z"/>
<path d="M8860 4539 c0 -6 -7 -9 -15 -5 -8 3 -15 2 -15 -3 0 -16 13 -20 33
-10 14 8 26 8 43 -2 13 -7 27 -9 31 -6 3 4 -1 7 -10 7 -9 0 -17 5 -17 11 0 5
5 7 12 3 7 -4 8 -3 4 4 -9 15 -66 16 -66 1z"/>
<path d="M8798 4523 c7 -3 16 -2 19 1 4 3 -2 6 -13 5 -11 0 -14 -3 -6 -6z"/>
<path d="M1060 4619 c0 -6 -9 -8 -20 -4 -11 4 -20 2 -20 -4 0 -16 39 -13 56 4
14 13 14 15 0 15 -9 0 -16 -5 -16 -11z"/>
<path d="M1090 4590 c0 -5 5 -10 10 -10 6 0 10 5 10 10 0 6 -4 10 -10 10 -5 0
-10 -4 -10 -10z"/>
<path d="M6806 4532 c-3 -5 1 -9 9 -9 8 0 15 4 15 9 0 4 -4 8 -9 8 -6 0 -12
-4 -15 -8z"/>
<path d="M8169 4359 c-8 -15 -8 -19 0 -15 6 4 11 2 11 -3 0 -6 7 -11 15 -11 9
0 15 9 15 25 0 31 -25 33 -41 4z"/>
<path d="M8015 4350 c-4 -6 6 -10 22 -10 22 0 25 2 13 10 -19 12 -27 12 -35 0z"/>
<path d="M7915 4259 c-4 -6 -5 -12 -4 -13 10 -8 88 -13 99 -6 21 13 1 30 -36
30 -21 0 -33 -4 -29 -10 3 -5 -1 -10 -10 -10 -9 0 -13 5 -10 10 3 6 4 10 1 10
-3 0 -8 -5 -11 -11z"/>
<path d="M7866 4218 c3 -5 10 -6 15 -3 13 9 11 12 -6 12 -8 0 -12 -4 -9 -9z"/>
<path d="M6480 2369 c0 -5 5 -7 10 -4 6 3 10 8 10 11 0 2 -4 4 -10 4 -5 0 -10
-5 -10 -11z"/>
<path d="M6561 2274 c0 -11 3 -14 6 -6 3 7 2 16 -1 19 -3 4 -6 -2 -5 -13z"/>
<path d="M6520 2254 c0 -8 5 -12 10 -9 6 4 8 11 5 16 -9 14 -15 11 -15 -7z"/>
<path d="M6484 2208 c-3 -4 3 -8 13 -8 15 0 16 -2 3 -10 -8 -5 -10 -10 -4 -10
5 0 15 5 22 12 9 9 12 8 12 -7 1 -19 1 -19 11 -2 6 10 8 21 4 25 -9 10 -55 10
-61 0z"/>
<path d="M1800 2434 c0 -14 3 -14 15 -4 8 7 15 14 15 16 0 2 -7 4 -15 4 -8 0
-15 -7 -15 -16z"/>
<path d="M3226 2391 c-10 -15 10 -22 36 -12 12 6 18 10 11 10 -6 1 -18 4 -26
7 -8 3 -18 1 -21 -5z"/>
<path d="M3225 2251 c-25 -14 -31 -25 -33 -59 -2 -24 1 -42 7 -42 16 0 80 34
81 43 0 4 -13 1 -30 -8 -33 -17 -40 -18 -40 -7 0 9 50 37 61 34 3 0 6 5 6 13
0 12 -4 12 -27 0 -15 -8 -30 -11 -34 -8 -9 9 46 43 57 36 6 -3 7 -1 3 5 -9 15
-14 14 -51 -7z"/>
<path d="M3266 2148 c3 -5 10 -6 15 -3 13 9 11 12 -6 12 -8 0 -12 -4 -9 -9z"/>
<path d="M3217 2068 c2 -5 -1 -8 -6 -8 -6 0 -11 -9 -11 -20 0 -12 7 -20 18
-20 14 0 15 -2 2 -10 -17 -10 -14 -15 18 -24 23 -8 31 7 11 20 -8 5 -6 10 5
16 28 16 18 31 -16 25 l-33 -6 28 15 c33 18 34 22 3 20 -13 0 -22 -4 -19 -8z"/>
<path d="M3226 1929 c-20 -16 -26 -29 -26 -60 0 -21 2 -39 5 -39 2 0 21 11 41
25 20 14 30 25 21 25 -9 0 -19 -4 -22 -10 -3 -5 -14 -10 -23 -10 -10 0 -4 9
19 26 l34 26 -35 -7 -35 -7 30 26 c36 30 29 35 -9 5z"/>
<path d="M3248 1832 c-25 -15 -37 -32 -22 -32 13 0 42 21 48 35 7 18 7 18 -26
-3z"/>
<path d="M3188 1619 c-5 -3 4 -6 21 -7 17 0 33 2 35 6 5 9 -42 9 -56 1z"/>
<path d="M6712 2161 c2 -7 7 -12 11 -12 12 1 9 15 -3 20 -7 2 -11 -2 -8 -8z"/>
<path d="M6745 2141 c-3 -5 -2 -12 3 -15 5 -3 9 1 9 9 0 17 -3 19 -12 6z"/>
<path d="M6758 2093 c7 -3 16 -2 19 1 4 3 -2 6 -13 5 -11 0 -14 -3 -6 -6z"/>
<path d="M2540 990 c0 -25 35 -27 49 -2 6 9 11 12 11 6 0 -16 84 -12 99 4 9 9
-6 12 -74 12 -78 0 -85 -2 -85 -20z"/>
<path d="M1623 833 c9 -2 25 -2 35 0 9 3 1 5 -18 5 -19 0 -27 -2 -17 -5z"/>
<path d="M2565 5538 c94 -95 195 -197 226 -226 54 -50 57 -52 57 -27 0 17 -5
24 -14 21 -7 -3 -98 81 -215 200 -112 112 -208 204 -213 204 -6 0 66 -78 159
-172z"/>
<path d="M2521 5623 c293 -303 294 -304 312 -297 10 3 17 10 15 14 -8 20 -279
293 -285 287 -4 -4 46 -60 110 -125 64 -64 126 -130 138 -147 12 -16 -63 57
-167 163 -104 106 -193 193 -198 192 -5 0 28 -39 75 -87z"/>
<path d="M2515 5670 c21 -22 41 -37 44 -35 6 7 -60 75 -73 75 -6 0 7 -18 29
-40z"/>
<path d="M2520 5704 c0 -3 44 -52 98 -108 54 -55 128 -132 164 -171 65 -68 66
-69 65 -39 -2 25 -29 60 -137 177 -74 80 -141 146 -149 146 -7 1 33 -49 90
-109 138 -147 219 -242 123 -145 -38 39 -108 112 -156 163 -82 86 -98 101 -98
86z"/>
<path d="M7352 5628 c-177 -187 -202 -215 -202 -227 0 -7 5 -9 13 -5 8 5 7 2
-2 -9 -8 -10 -12 -20 -9 -22 5 -5 306 306 321 331 16 28 -12 13 -44 -23 -53
-62 -257 -271 -219 -226 19 23 82 92 139 153 57 60 98 110 93 110 -6 0 -46
-37 -90 -82z"/>
<path d="M7420 5623 c-46 -49 -126 -132 -179 -185 -52 -54 -92 -100 -89 -104
6 -6 281 270 343 344 55 66 5 29 -75 -55z"/>
<path d="M7405 5567 c-210 -213 -262 -270 -240 -259 11 6 85 77 164 159 222
228 236 243 225 243 -5 0 -73 -64 -149 -143z"/>
<path d="M7409 5533 c-172 -175 -263 -275 -161 -179 28 28 55 46 59 42 4 -4 0
-12 -10 -17 -9 -6 -17 -14 -17 -20 0 -5 9 -1 21 10 12 11 18 24 14 30 -3 7 55
74 137 157 79 80 145 147 147 150 2 2 0 4 -5 4 -5 0 -88 -80 -185 -177z"/>
<path d="M2555 5510 c93 -93 165 -170 160 -170 -5 0 -78 68 -162 152 -84 84
-155 150 -158 147 -2 -3 62 -71 143 -151 203 -202 306 -298 312 -292 2 3 -26
34 -64 70 -37 36 -66 67 -64 69 2 3 29 -20 58 -50 30 -30 59 -55 65 -55 5 0
-91 101 -215 225 -124 124 -229 225 -235 225 -5 0 67 -76 160 -170z"/>
<path d="M7455 5539 c-77 -78 -135 -140 -128 -138 7 2 58 50 115 106 145 143
173 173 162 173 -5 0 -72 -64 -149 -141z"/>
<path d="M7500 5543 c-104 -106 -96 -106 20 1 74 68 99 96 83 96 -5 0 -51 -44
-103 -97z"/>
<path d="M7331 5380 c-24 -22 -48 -37 -53 -34 -17 10 -125 -105 -125 -132 0
-13 1 -24 2 -24 1 0 56 52 121 115 66 63 115 114 109 114 -5 0 -30 -18 -54
-39z m-51 -48 c0 -4 -28 -32 -62 -61 l-63 -54 60 61 c62 64 65 67 65 54z"/>
<path d="M3133 5047 c0 -51 2 -54 24 -54 l24 0 -23 26 c-21 24 -20 23 9 -3 17
-15 36 -25 41 -22 6 4 13 2 17 -4 3 -5 1 -10 -6 -10 -7 0 0 -14 16 -30 16 -17
31 -27 34 -22 3 4 24 -13 46 -38 22 -25 33 -39 24 -33 -9 7 -19 9 -23 5 -4 -4
-6 -2 -4 3 2 6 0 10 -3 10 -4 0 -16 9 -28 19 -36 32 -23 2 14 -34 19 -19 35
-31 35 -27 0 4 11 0 24 -8 23 -15 24 -15 22 1 -3 19 -116 152 -130 153 -5 1
-2 -7 5 -16 13 -16 12 -17 -3 -5 -9 8 -15 19 -12 25 2 7 -20 36 -49 65 l-54
53 0 -54z m47 -12 c19 -19 32 -35 29 -35 -3 0 -20 16 -39 35 -19 19 -32 35
-29 35 3 0 20 -16 39 -35z"/>
<path d="M6840 5074 c-21 -21 -22 -24 -5 -18 18 7 18 6 6 -9 -7 -9 -18 -14
-23 -11 -6 4 -25 -11 -44 -32 -39 -43 -45 -58 -11 -26 13 12 27 19 30 15 4 -3
16 3 28 15 11 13 24 20 28 18 4 -3 8 0 9 7 0 7 3 24 6 40 8 32 8 32 -24 1z
m-26 -59 c-4 -8 -11 -15 -16 -15 -6 0 -5 6 2 15 7 8 14 15 16 15 2 0 1 -7 -2
-15z"/>
<path d="M6832 4978 c-14 -15 -22 -18 -22 -9 0 10 -3 11 -13 2 -8 -6 -16 -9
-19 -6 -2 3 -17 -8 -32 -24 -16 -16 -34 -27 -41 -25 -7 3 -27 -13 -44 -35 -30
-38 -31 -40 -9 -35 13 3 29 6 36 8 22 4 83 69 71 77 -8 5 -8 8 0 13 6 4 11 2
11 -5 0 -8 8 -5 23 7 12 10 0 -5 -27 -33 -40 -42 -45 -52 -28 -50 11 0 20 4
19 7 -3 9 87 110 98 110 5 0 -15 -25 -45 -55 -30 -30 -50 -55 -44 -55 5 0 16
6 23 13 11 10 13 10 7 0 -4 -8 -2 -13 5 -13 18 0 4 -11 -18 -14 -10 -2 -18 -8
-18 -14 0 -7 -4 -11 -10 -9 -5 1 -9 5 -7 10 6 20 -19 2 -72 -52 -46 -46 -54
-59 -41 -65 9 -3 13 -10 10 -16 -4 -6 -10 -8 -14 -6 -4 3 -8 -2 -8 -10 0 -8 4
-13 8 -12 5 2 60 54 122 116 111 109 115 114 113 152 -3 51 -7 54 -34 28z m18
-41 c0 -2 -10 -12 -22 -23 l-23 -19 19 23 c18 21 26 27 26 19z m-125 -37 c-16
-16 -31 -28 -33 -25 -3 3 -15 -3 -26 -12 -12 -10 -8 -3 8 14 16 18 32 30 36
28 4 -3 13 2 20 10 7 8 15 15 18 15 3 0 -7 -13 -23 -30z m135 17 c0 -2 -12
-14 -27 -28 l-28 -24 24 28 c23 25 31 32 31 24z m-156 -150 c-36 -40 -74 -68
-45 -34 7 10 10 17 5 17 -4 0 7 16 26 35 47 48 59 32 14 -18z"/>
<path d="M6694 4778 l-29 -33 33 29 c17 17 32 31 32 33 0 8 -8 1 -36 -29z"/>
<path d="M3135 4943 c1 -29 19 -52 110 -143 72 -72 112 -105 116 -98 8 13 -7
39 -20 35 -7 -2 -81 59 -81 67 0 12 32 -3 64 -32 20 -18 38 -32 40 -32 1 0 2
13 1 29 -1 31 -22 64 -35 56 -4 -2 -22 11 -40 30 -19 19 -39 35 -44 35 -6 0
19 -30 54 -67 36 -37 47 -51 24 -30 -22 20 -44 34 -49 30 -4 -5 -5 -3 -2 3 4
6 -5 22 -18 34 -25 23 -36 15 -13 -8 16 -16 19 -44 5 -39 -7 2 -11 11 -11 20
1 10 -3 14 -10 10 -6 -3 -8 -3 -4 2 4 4 3 14 -3 22 -9 10 -8 13 2 13 7 0 -7
21 -31 48 l-45 47 45 -42 c36 -33 47 -39 57 -28 18 20 -39 70 -82 71 -31 1
-33 -1 -30 -33z m81 -5 l29 -33 -32 29 c-31 28 -38 36 -30 36 2 0 16 -15 33
-32z m-11 -56 c-3 -3 0 -11 6 -19 26 -31 -10 -10 -42 25 -18 20 -27 31 -19 25
27 -24 34 -13 9 15 -15 18 -11 15 13 -7 21 -19 36 -37 33 -39z m146 -79 c13
-16 12 -17 -3 -4 -17 13 -22 21 -14 21 2 0 10 -8 17 -17z"/>
<path d="M3270 4916 c0 -2 8 -10 18 -17 15 -13 16 -12 3 4 -13 16 -21 21 -21
13z"/>
<path d="M6708 4850 c-2 -6 -11 -12 -20 -14 -10 -1 -20 -5 -24 -8 -3 -4 -12
-4 -19 -2 -7 3 -16 1 -19 -4 -3 -6 1 -13 10 -16 8 -3 13 -2 10 2 -3 5 1 9 9 9
11 0 12 -4 4 -13 -6 -8 -15 -12 -21 -11 -6 1 -12 -9 -14 -23 -4 -22 2 -18 48
27 29 29 49 55 46 58 -3 4 -8 1 -10 -5z"/>
<path d="M3280 4797 c0 -2 15 -16 33 -33 l32 -29 -29 33 c-28 30 -36 37 -36
29z"/>
<path d="M3410 4781 c0 -15 4 -20 13 -15 7 5 7 1 -2 -10 -12 -14 -12 -19 -2
-26 8 -4 11 -12 8 -17 -3 -5 3 -9 13 -10 11 -1 22 2 25 7 3 5 13 6 23 3 15 -6
15 -4 -2 15 -23 26 -22 26 -30 6 -4 -10 -2 -13 6 -8 7 4 8 3 4 -5 -12 -18 -25
-3 -20 23 2 14 -4 30 -16 41 -19 18 -20 17 -20 -4z"/>
<path d="M6540 4753 c-71 -76 -116 -128 -99 -115 9 6 20 8 24 4 5 -4 5 -2 2 4
-4 7 0 17 8 24 8 7 15 9 15 5 0 -4 6 -3 13 3 7 6 18 7 26 3 10 -7 11 -10 1
-16 -10 -6 -9 -11 3 -20 15 -11 14 -14 -10 -36 -17 -16 -24 -19 -21 -8 5 12 0
15 -20 13 -15 -1 -28 -3 -29 -4 -2 -1 -7 -3 -12 -4 -18 -2 -25 -17 -26 -52 -1
-26 2 -33 14 -32 10 2 15 -3 13 -12 -2 -8 30 17 70 55 57 54 74 76 74 97 -1
15 -7 30 -14 33 -7 3 -11 1 -8 -4 3 -5 -1 -14 -8 -20 -11 -10 -14 -9 -12 3 3
19 14 31 29 31 7 0 14 11 15 25 l4 25 -31 -29 c-42 -40 -73 -45 -36 -6 16 16
31 27 35 25 12 -7 32 22 28 40 -2 12 -15 3 -48 -32z m37 -97 c0 -8 -29 -43
-65 -78 -36 -35 -62 -57 -58 -50 6 10 -4 16 -25 14 -3 -1 -5 11 -4 26 0 15 6
28 13 28 7 1 13 2 15 4 8 6 36 7 32 0 -3 -4 1 -10 9 -13 7 -3 26 8 42 24 15
16 24 29 20 29 -5 0 -3 7 4 15 15 19 17 19 17 1z"/>
<path d="M6455 4590 c-4 -6 -10 -8 -15 -5 -4 3 -7 -2 -6 -11 4 -30 32 -35 52
-11 l19 22 -22 -19 c-23 -19 -33 -10 -12 11 7 7 7 13 1 17 -6 3 -13 2 -17 -4z
m15 -4 c0 -2 -8 -10 -17 -17 -16 -13 -17 -12 -4 4 13 16 21 21 21 13z"/>
<path d="M6534 4718 l-19 -23 23 19 c12 11 22 21 22 23 0 8 -8 2 -26 -19z"/>
<path d="M3469 4689 c-7 -4 -21 -6 -31 -4 -10 2 -18 1 -19 -3 0 -4 -2 -15 -4
-24 -2 -10 2 -16 8 -15 6 1 11 -3 12 -10 0 -16 21 -36 41 -39 11 -2 2 12 -22
37 -59 61 -27 46 40 -18 33 -32 53 -49 44 -38 -13 16 -14 23 -5 36 18 24 22
25 43 10 10 -8 0 5 -24 30 -42 45 -60 53 -83 38z m67 -30 l27 -28 -28 5 c-24
4 -26 3 -16 -10 7 -8 8 -17 3 -20 -5 -3 -26 12 -47 34 -38 39 -26 52 15 15 23
-21 27 -10 5 15 -28 31 11 20 41 -11z m-75 -46 c13 -16 12 -17 -3 -4 -17 13
-22 21 -14 21 2 0 10 -8 17 -17z"/>
<path d="M3515 4660 c10 -11 20 -20 23 -20 3 0 -3 9 -13 20 -10 11 -20 20 -23
20 -3 0 3 -9 13 -20z"/>
<path d="M3460 4667 c0 -2 15 -16 33 -33 l32 -29 -29 33 c-28 30 -36 37 -36
29z"/>
<path d="M3521 4534 c23 -24 46 -41 52 -37 12 7 -59 80 -79 80 -9 0 1 -17 27
-43z m19 1 c19 -19 32 -35 29 -35 -3 0 -20 16 -39 35 -19 19 -32 35 -29 35 3
0 20 -16 39 -35z"/>
<path d="M3624 4530 c1 -45 2 -46 31 -45 39 1 40 13 1 56 l-33 35 1 -46z m40
-8 l27 -29 -28 2 c-22 1 -27 6 -28 28 -1 15 -1 27 0 27 1 0 14 -13 29 -28z"/>
<path d="M3643 4517 c0 -8 6 -14 14 -14 9 0 10 4 2 14 -6 7 -12 13 -14 13 -1
0 -2 -6 -2 -13z"/>
<path d="M3564 4553 c4 -26 22 -34 22 -10 0 13 -5 24 -12 24 -6 0 -11 -6 -10
-14z"/>
<path d="M6345 4520 c-4 -6 -10 -8 -14 -6 -4 3 -25 -14 -47 -36 -21 -23 -32
-36 -22 -30 12 9 18 10 23 2 5 -8 13 -6 25 5 12 11 20 13 25 5 3 -5 11 -8 16
-4 6 3 5 12 -3 22 -11 13 -11 14 1 7 10 -6 12 -4 6 5 -5 8 -4 11 2 7 11 -7 11
-56 0 -74 -4 -6 -25 -10 -47 -9 -44 1 -49 -14 -8 -25 37 -10 73 29 74 81 1 24
-3 38 -10 37 -6 -1 -10 4 -8 11 3 15 -4 16 -13 2z m-4 -23 c-7 -7 -7 -16 2
-26 10 -14 10 -14 -4 -3 -13 10 -19 9 -29 -3 -7 -8 -17 -12 -22 -9 -12 8 28
51 48 51 10 0 11 -4 5 -10z"/>
<path d="M6304 4478 l-19 -23 23 19 c12 11 22 21 22 23 0 8 -8 2 -26 -19z"/>
<path d="M3695 4440 c-4 -6 -11 -8 -16 -5 -5 4 -9 2 -9 -4 0 -5 -9 -8 -21 -6
-17 3 -19 2 -9 -10 10 -12 15 -12 34 0 13 8 25 13 28 10 2 -3 5 2 5 10 0 18
-3 19 -12 5z"/>
<path d="M6250 4390 c0 -5 5 -10 11 -10 5 0 7 5 4 10 -3 6 -8 10 -11 10 -2 0
-4 -4 -4 -10z"/>
<path d="M3739 4368 c-6 -24 -6 -37 1 -48 5 -8 9 -3 12 14 3 15 1 29 -3 32 -5
3 -9 4 -10 2z"/>
<path d="M3863 4261 c2 -32 7 -62 10 -68 7 -11 36 -11 56 2 9 5 12 4 7 -3 -3
-6 -2 -13 2 -16 5 -3 9 7 8 23 -1 19 -16 45 -43 74 l-43 46 3 -58z m44 -23
c-12 -7 -2 -12 17 -9 5 1 4 -4 -2 -12 -7 -8 -8 -18 -4 -23 4 -5 -5 1 -19 14
-22 20 -27 34 -20 60 1 1 10 -3 21 -10 14 -9 16 -14 7 -20z"/>
<path d="M3884 4245 c1 -8 8 -21 16 -28 12 -10 12 -9 2 4 -6 9 -9 18 -6 21 3
3 1 9 -4 12 -6 3 -9 -1 -8 -9z"/>
<path d="M6092 4270 c-41 -43 -54 -89 -24 -82 8 1 11 -2 7 -8 -3 -6 -10 -8
-14 -6 -4 3 -7 -8 -6 -24 l0 -29 42 41 c40 39 59 83 41 94 -4 3 -7 1 -6 -4 3
-9 -2 -12 -19 -12 -3 0 2 9 11 19 10 11 16 28 14 37 -2 15 -12 10 -46 -26z
m18 -84 c0 -2 -8 -10 -17 -17 -16 -13 -17 -12 -4 4 13 16 21 21 21 13z"/>
<path d="M3974 4183 c2 -10 6 -17 10 -16 15 3 16 11 2 22 -12 10 -14 9 -12 -6z"/>
<path d="M5986 4154 c-26 -34 -33 -51 -27 -62 6 -10 6 -23 0 -34 -16 -30 7
-28 36 2 31 33 48 83 20 60 -8 -7 -12 -17 -8 -24 3 -6 3 -8 -2 -4 -4 4 -15 2
-24 -5 -14 -10 -14 -10 -4 4 7 9 9 20 5 24 -4 5 -2 5 4 2 17 -10 44 26 42 56
-1 15 -3 27 -5 27 -1 0 -18 -21 -37 -46z m31 11 c0 -8 -4 -12 -9 -9 -5 3 -6
10 -3 15 9 13 12 11 12 -6z"/>
<path d="M3984 4111 c21 -24 20 -37 -1 -20 -10 7 -7 1 6 -14 25 -27 43 -39 22
-13 -9 11 -8 15 4 20 9 3 14 2 11 -2 -2 -4 -1 -14 4 -22 7 -11 9 -8 7 10 -1
25 -29 53 -55 57 -10 1 -10 -3 2 -16z m27 -8 c13 -16 12 -17 -3 -4 -17 13 -22
21 -14 21 2 0 10 -8 17 -17z"/>
<path d="M4063 4079 c2 -13 8 -23 13 -22 15 3 15 20 -1 33 -13 11 -15 9 -12
-11z"/>
<path d="M5907 4072 c-20 -21 -26 -37 -25 -70 0 -24 1 -42 3 -40 1 2 8 14 15
27 10 19 10 22 -2 16 -7 -5 -1 5 15 22 28 30 36 50 15 37 -9 -5 -8 -2 1 9 23
29 6 29 -22 -1z"/>
<path d="M4103 4041 c0 -11 5 -18 9 -15 4 3 5 11 1 19 -7 21 -12 19 -10 -4z"/>
<path d="M5921 4026 c-9 -10 -8 -15 2 -19 8 -3 13 3 14 14 2 23 -1 24 -16 5z"/>
<path d="M4183 3945 c0 -16 3 -22 7 -15 6 9 9 9 12 -1 3 -8 9 -10 14 -6 4 4
-1 17 -13 28 l-20 21 0 -27z"/>
<path d="M5797 3953 c-10 -12 -17 -33 -15 -52 2 -30 3 -31 21 -13 12 13 17 30
15 52 -3 32 -3 32 -21 13z"/>
<path d="M4195 3890 c10 -11 20 -20 22 -20 2 0 -2 9 -9 20 -7 11 -17 20 -22
20 -5 0 -1 -9 9 -20z"/>
<path d="M5744 3893 c-4 -10 -8 -20 -8 -23 -1 -3 -4 -10 -8 -15 -4 -6 -3 -17
1 -24 12 -18 25 4 27 47 3 36 0 40 -12 15z"/>
<path d="M4240 3846 c0 -2 8 -10 18 -17 15 -13 16 -12 3 4 -13 16 -21 21 -21
13z"/>
<path d="M5683 3813 c0 -7 5 -13 10 -13 5 0 3 -8 -4 -17 -11 -15 -11 -16 1 -6
17 16 20 50 5 50 -6 0 -12 -6 -12 -14z"/>
<path d="M5630 3780 c-1 -3 -4 -18 -6 -34 -2 -20 0 -26 7 -19 6 6 9 21 6 34
-2 13 -5 22 -7 19z"/>
<path d="M4360 3760 c0 -5 5 -10 11 -10 5 0 7 5 4 10 -3 6 -8 10 -11 10 -2 0
-4 -4 -4 -10z"/>
<path d="M5561 3693 c0 -6 -4 -20 -7 -30 -5 -14 -4 -15 5 -7 7 7 11 20 8 30
-3 11 -5 14 -6 7z"/>
<path d="M4963 2843 c15 -2 37 -2 50 0 12 2 0 4 -28 4 -27 0 -38 -2 -22 -4z"/>
<path d="M5083 2843 c9 -2 23 -2 30 0 6 3 -1 5 -18 5 -16 0 -22 -2 -12 -5z"/>
<path d="M4140 2140 c0 -5 5 -10 11 -10 5 0 7 5 4 10 -3 6 -8 10 -11 10 -2 0
-4 -4 -4 -10z"/>
<path d="M5840 2140 c-13 -8 -12 -10 3 -10 9 0 17 5 17 10 0 12 -1 12 -20 0z"/>
<path d="M5920 2026 c0 -2 8 -10 18 -17 15 -13 16 -12 3 4 -13 16 -21 21 -21
13z"/>
<path d="M5980 1964 c0 -6 17 -26 38 -45 l37 -34 -35 40 c-19 22 -36 42 -37
44 -2 2 -3 0 -3 -5z"/>
<path d="M6071 1854 c13 -17 26 -30 28 -27 3 2 -8 16 -24 31 l-28 27 24 -31z"/>
<path d="M6150 1768 c0 -4 14 -8 31 -8 17 0 28 4 24 10 -7 11 -55 9 -55 -2z"/>
<path d="M3813 1763 c9 -2 23 -2 30 0 6 3 -1 5 -18 5 -16 0 -22 -2 -12 -5z"/>
<path d="M6267 1628 c11 -13 58 -68 104 -123 201 -239 312 -365 324 -365 9 0
-40 59 -263 313 -96 108 -176 197 -180 197 -3 0 4 -10 15 -22z"/>
<path d="M3583 1468 c-54 -62 -109 -126 -122 -143 -36 -45 67 61 124 129 96
113 106 126 102 126 -3 0 -50 -51 -104 -112z"/>
<path d="M3404 1258 l-19 -23 23 19 c21 18 27 26 19 26 -2 0 -12 -10 -23 -22z"/>
<path d="M3291 1133 c-41 -46 -72 -86 -69 -89 3 -2 31 26 63 63 86 100 89 103
84 106 -2 2 -37 -34 -78 -80z"/>
<path d="M6719 1105 c14 -29 120 -142 121 -128 0 6 -30 42 -66 80 -36 37 -61
59 -55 48z"/>
<path d="M3190 1015 c-8 -9 -8 -15 -2 -15 12 0 26 19 19 26 -2 2 -10 -2 -17
-11z"/>
<path d="M3083 932 c-24 -2 -43 -7 -43 -13 0 -13 77 -11 85 2 9 14 7 14 -42
11z"/>
<path d="M2864 632 c-6 -4 -34 -34 -63 -67 -30 -33 -83 -93 -120 -134 -36 -40
-69 -79 -73 -85 -4 -7 -22 -28 -41 -48 -89 -95 -256 -298 -245 -298 7 0 43 35
79 78 36 42 152 178 259 302 106 124 200 233 208 243 16 18 14 22 -4 9z"/>
<path d="M7130 625 c0 -3 33 -42 73 -88 40 -45 84 -96 97 -113 36 -45 259
-304 288 -334 14 -14 36 -40 49 -57 25 -32 43 -42 43 -24 0 5 -11 23 -25 39
-31 37 -32 51 -2 26 l22 -19 -20 23 c-16 20 -17 25 -5 32 10 6 11 10 3 10 -7
0 -16 -8 -21 -17 -9 -14 -15 -11 -46 23 -42 46 -48 68 -8 33 l27 -24 -24 27
c-13 15 -27 25 -32 23 -9 -6 -16 1 -84 80 -27 32 -65 75 -83 95 -18 21 -31 44
-30 52 2 7 -2 12 -9 11 -6 -1 -42 31 -79 72 -77 85 -85 96 -77 109 3 5 1 6 -4
3 -6 -4 -16 0 -23 8 -12 15 -30 20 -30 10z"/>
<path d="M7526 278 c3 -5 10 -6 15 -3 13 9 11 12 -6 12 -8 0 -12 -4 -9 -9z"/>
<path d="M7500 242 c6 -13 14 -21 18 -18 3 4 -2 14 -12 24 -18 16 -18 16 -6
-6z"/>
<path d="M7587 179 c7 -7 15 -10 18 -7 3 3 -2 9 -12 12 -14 6 -15 5 -6 -5z"/>
</g>
</svg>
