<?xml version="1.0" encoding="UTF-8"?>
<!DOCTYPE svg PUBLIC "-//W3C//DTD SVG 1.1//EN" "http://www.w3.org/Graphics/SVG/1.1/DTD/svg11.dtd">
<svg xmlns="http://www.w3.org/2000/svg" version="1.1" width="167px" height="62px" style="shape-rendering:geometricPrecision; text-rendering:geometricPrecision; image-rendering:optimizeQuality; fill-rule:evenodd; clip-rule:evenodd" xmlns:xlink="http://www.w3.org/1999/xlink">
<g><path style="opacity:0.912" fill="#006893" d="M 15.5,-0.5 C 17.5,-0.5 19.5,-0.5 21.5,-0.5C 24.5917,0.183984 27.5917,1.18398 30.5,2.5C 30.5,3.5 30.5,4.5 30.5,5.5C 25.1779,5.01987 19.8446,4.68654 14.5,4.5C 14.1667,3.16667 13.8333,1.83333 13.5,0.5C 14.4916,0.67158 15.1583,0.338246 15.5,-0.5 Z"/></g>
<g><path style="opacity:1" fill="#045377" d="M 30.5,2.5 C 38.5163,4.84891 42.8496,10.1822 43.5,18.5C 41.1838,17.1944 38.8505,15.8611 36.5,14.5C 36.5,13.8333 36.1667,13.5 35.5,13.5C 35.1583,12.6618 34.4916,12.3284 33.5,12.5C 31.5073,10.8368 29.1739,9.67014 26.5,9C 22.1794,8.50098 17.8461,8.33432 13.5,8.5C 14.2341,7.29208 14.5674,5.95875 14.5,4.5C 19.8446,4.68654 25.1779,5.01987 30.5,5.5C 30.5,4.5 30.5,3.5 30.5,2.5 Z"/></g>
<g><path style="opacity:0.565" fill="#03884a" d="M 13.5,0.5 C 13.8333,1.83333 14.1667,3.16667 14.5,4.5C 14.5674,5.95875 14.2341,7.29208 13.5,8.5C 6.88556,5.66427 6.88556,2.99761 13.5,0.5 Z"/></g>
<g><path style="opacity:1" fill="#009f51" d="M 33.5,12.5 C 33.8417,13.3382 34.5084,13.6716 35.5,13.5C 36.1667,13.5 36.5,13.8333 36.5,14.5C 38.8505,15.8611 41.1838,17.1944 43.5,18.5C 47.4713,23.11 49.8047,28.4433 50.5,34.5C 48.8333,34.5 47.1667,34.5 45.5,34.5C 43.252,24.4245 36.9187,18.5912 26.5,17C 19.4774,16.3766 12.4774,16.5432 5.5,17.5C 5.37133,15.7839 5.038,14.1172 4.5,12.5C 14.1655,9.83353 23.8322,9.83353 33.5,12.5 Z"/></g>
<g><path style="opacity:0.854" fill="#074e71" d="M 80.5,34.5 C 77.8333,34.5 75.1667,34.5 72.5,34.5C 69.0641,33.2185 65.7307,33.2185 62.5,34.5C 59.8333,34.5 57.1667,34.5 54.5,34.5C 54.3339,28.8236 54.5006,23.1569 55,17.5C 55.4652,16.0692 56.2986,14.9025 57.5,14C 62.5,13.3333 67.5,13.3333 72.5,14C 75.0336,14.5163 77.2002,15.683 79,17.5C 80.203,23.1294 80.703,28.796 80.5,34.5 Z M 62.5,21.5 C 65.5184,21.3354 68.5184,21.502 71.5,22C 74.1667,23.3333 74.1667,24.6667 71.5,26C 68.5184,26.498 65.5184,26.6646 62.5,26.5C 62.5,24.8333 62.5,23.1667 62.5,21.5 Z"/></g>
<g><path style="opacity:0.503" fill="#06753f" d="M 152.5,17.5 C 152.5,18.1667 152.5,18.8333 152.5,19.5C 146.372,23.2139 144.039,21.7139 145.5,15C 148.626,13.9836 150.959,14.8169 152.5,17.5 Z"/></g>
<g><path style="opacity:0.83" fill="#074e71" d="M 160.5,34.5 C 155.167,34.5 149.833,34.5 144.5,34.5C 144.335,30.8183 144.501,27.1516 145,23.5C 147.642,21.9414 149.975,22.2747 152,24.5C 152.494,22.8659 152.66,21.1992 152.5,19.5C 152.5,18.8333 152.5,18.1667 152.5,17.5C 154.277,14.5064 156.777,13.8397 160,15.5C 160.5,21.8246 160.666,28.1579 160.5,34.5 Z"/></g>
<g><path style="opacity:0.427" fill="#006188" d="M 4.5,12.5 C 5.038,14.1172 5.37133,15.7839 5.5,17.5C 5.5,19.1667 5.5,20.8333 5.5,22.5C 5.44001,23.0431 5.10667,23.3764 4.5,23.5C 2.92464,22.5435 1.25797,21.8769 -0.5,21.5C -0.5,19.5 -0.5,17.5 -0.5,15.5C 1.00087,14.2485 2.66754,13.2485 4.5,12.5 Z"/></g>
<g><path style="opacity:0.845" fill="#074e71" d="M 121.5,34.5 C 119.167,34.5 116.833,34.5 114.5,34.5C 110.833,27.8333 107.167,27.8333 103.5,34.5C 101.167,34.5 98.8333,34.5 96.5,34.5C 96.5,32.8333 96.5,31.1667 96.5,29.5C 92.4175,29.1943 89.7508,30.8609 88.5,34.5C 86.1667,34.5 83.8333,34.5 81.5,34.5C 82.4038,25.2548 87.4038,21.2548 96.5,22.5C 97.5836,23.6651 98.4169,24.9984 99,26.5C 106.291,19.6864 113.291,20.0198 120,27.5C 121.202,29.6775 121.702,32.0108 121.5,34.5 Z"/></g>
<g><path style="opacity:0.823" fill="#074e71" d="M 142.5,34.5 C 136.167,34.5 129.833,34.5 123.5,34.5C 120.792,25.1877 124.458,20.8544 134.5,21.5C 136.833,21.6667 139.167,21.8333 141.5,22C 143.787,24.0483 143.954,26.2149 142,28.5C 137.92,29.3002 133.753,29.8002 129.5,30C 132.976,31.2542 136.642,31.9209 140.5,32C 141.381,32.7083 142.047,33.5416 142.5,34.5 Z"/></g>
<g><path style="opacity:1" fill="#008d48" d="M 39.5,34.5 C 38.5,34.5 37.5,34.5 36.5,34.5C 36.7359,37.6085 36.4025,40.6085 35.5,43.5C 35.1667,43.5 34.8333,43.5 34.5,43.5C 36.0745,36.0741 33.0745,32.0741 25.5,31.5C 25.5,30.1667 25.5,28.8333 25.5,27.5C 21.1667,27.5 16.8333,27.5 12.5,27.5C 12.2267,25.549 12.8934,24.049 14.5,23C 23.0485,21.4737 30.7152,23.307 37.5,28.5C 39.0863,30.1727 39.7529,32.1727 39.5,34.5 Z"/></g>
<g><path style="opacity:0.854" fill="#063554" d="M 54.5,34.5 C 57.1667,34.5 59.8333,34.5 62.5,34.5C 62.5,36.1667 62.5,37.8333 62.5,39.5C 65.8984,39.8204 69.2317,39.487 72.5,38.5C 73.8069,37.135 73.8069,35.8016 72.5,34.5C 75.1667,34.5 77.8333,34.5 80.5,34.5C 80.7836,45.0372 75.6169,49.3705 65,47.5C 61.9136,47.478 58.9136,47.1447 56,46.5C 54.6463,42.6372 54.1463,38.6372 54.5,34.5 Z"/></g>
<g><path style="opacity:0.895" fill="#063554" d="M 81.5,34.5 C 83.8333,34.5 86.1667,34.5 88.5,34.5C 88.6655,38.5138 88.4988,42.5138 88,46.5C 86,47.8333 84,47.8333 82,46.5C 81.5012,42.5138 81.3345,38.5138 81.5,34.5 Z"/></g>
<g><path style="opacity:0.878" fill="#063554" d="M 96.5,34.5 C 98.8333,34.5 101.167,34.5 103.5,34.5C 107.167,41.1667 110.833,41.1667 114.5,34.5C 116.833,34.5 119.167,34.5 121.5,34.5C 121.666,38.5138 121.499,42.5138 121,46.5C 120.275,47.0585 119.442,47.3918 118.5,47.5C 113.131,47.7122 107.798,47.2122 102.5,46C 98.2384,43.309 96.2384,39.4757 96.5,34.5 Z"/></g>
<g><path style="opacity:0.816" fill="#063554" d="M 123.5,34.5 C 129.833,34.5 136.167,34.5 142.5,34.5C 143.222,34.9175 143.722,35.5842 144,36.5C 144.464,35.9056 144.631,35.2389 144.5,34.5C 149.833,34.5 155.167,34.5 160.5,34.5C 160.421,38.4907 162.421,40.824 166.5,41.5C 166.5,42.8333 166.5,44.1667 166.5,45.5C 159.883,48.6131 155.383,46.6131 153,39.5C 153.671,45.6723 151.171,48.0057 145.5,46.5C 144.846,44.8849 144.346,43.2182 144,41.5C 143.167,44.3333 141.333,46.1667 138.5,47C 133.833,47.6667 129.167,47.6667 124.5,47C 121.833,44.6667 121.833,42.3333 124.5,40C 128.5,39.6667 132.5,39.3333 136.5,39C 133.5,38.6667 130.5,38.3333 127.5,38C 125.676,37.34 124.343,36.1733 123.5,34.5 Z"/></g>
<g><path style="opacity:0.86" fill="#027237" d="M 50.5,34.5 C 51.3505,40.4394 49.6838,45.4394 45.5,49.5C 45.1788,47.9519 44.1788,47.2852 42.5,47.5C 43.1408,46.5178 43.8075,45.5178 44.5,44.5C 42.2287,43.6365 39.8954,43.6365 37.5,44.5C 37.1667,43.1667 36.8333,43.1667 36.5,44.5C 36.1667,44.5 35.8333,44.5 35.5,44.5C 35.5,44.1667 35.5,43.8333 35.5,43.5C 36.4025,40.6085 36.7359,37.6085 36.5,34.5C 37.5,34.5 38.5,34.5 39.5,34.5C 39.4524,42.1528 40.1191,42.3195 41.5,35C 41.0979,28.595 37.7646,24.595 31.5,23C 22.8772,21.2462 14.2105,21.0795 5.5,22.5C 5.5,20.8333 5.5,19.1667 5.5,17.5C 12.4774,16.5432 19.4774,16.3766 26.5,17C 36.9187,18.5912 43.252,24.4245 45.5,34.5C 47.1667,34.5 48.8333,34.5 50.5,34.5 Z"/></g>
<g><path style="opacity:0.763" fill="#036632" d="M 12.5,27.5 C 16.8333,27.5 21.1667,27.5 25.5,27.5C 25.5,28.8333 25.5,30.1667 25.5,31.5C 24.1667,31.5 22.8333,31.5 21.5,31.5C 21.5,36.1667 21.5,40.8333 21.5,45.5C 18.6085,44.5975 15.6085,44.2641 12.5,44.5C 12.5,38.8333 12.5,33.1667 12.5,27.5 Z"/></g>
<g><path style="opacity:0.947" fill="#007b35" d="M 34.5,43.5 C 34.8333,43.5 35.1667,43.5 35.5,43.5C 35.5,43.8333 35.5,44.1667 35.5,44.5C 35.8333,45.8333 36.1667,45.8333 36.5,44.5C 36.8333,44.5 37.1667,44.5 37.5,44.5C 39.8954,43.6365 42.2287,43.6365 44.5,44.5C 43.8075,45.5178 43.1408,46.5178 42.5,47.5C 34.4792,56.0736 24.4792,60.4069 12.5,60.5C 12.5,55.1667 12.5,49.8333 12.5,44.5C 15.6085,44.2641 18.6085,44.5975 21.5,45.5C 21.5,47.5 21.5,49.5 21.5,51.5C 25.797,50.854 29.797,49.354 33.5,47C 34.3366,45.9887 34.67,44.8221 34.5,43.5 Z"/></g>
<g><path style="opacity:1" fill="#055c2b" d="M 42.5,47.5 C 44.1788,47.2852 45.1788,47.9519 45.5,49.5C 38.5771,56.4616 30.2437,60.4616 20.5,61.5C 17.8333,61.5 15.1667,61.5 12.5,61.5C 12.5,61.1667 12.5,60.8333 12.5,60.5C 24.4792,60.4069 34.4792,56.0736 42.5,47.5 Z"/></g>
<g><path style="opacity:0.917" fill="#838487" d="M 141.5,54.5 C 139.833,54.5 138.167,54.5 136.5,54.5C 136.5,56.8333 136.5,59.1667 136.5,61.5C 135.5,61.5 134.5,61.5 133.5,61.5C 133.5,59.1667 133.5,56.8333 133.5,54.5C 132.022,54.762 130.689,54.4287 129.5,53.5C 131.5,53.1667 133.5,52.8333 135.5,52.5C 137.952,52.5391 139.952,53.2057 141.5,54.5 Z"/></g>
<g><path style="opacity:0.852" fill="#828386" d="M 157.5,57.5 C 152.167,57.5 146.833,57.5 141.5,57.5C 141.5,56.5 141.5,55.5 141.5,54.5C 145.695,51.9281 149.862,51.9281 154,54.5C 154.71,53.0267 155.876,52.3601 157.5,52.5C 157.5,54.1667 157.5,55.8333 157.5,57.5 Z"/></g>
<g><path style="opacity:0.861" fill="#747578" d="M 107.5,61.5 C 103.5,61.5 99.5,61.5 95.5,61.5C 95.5,58.5 95.5,55.5 95.5,52.5C 99.5138,52.3345 103.514,52.5012 107.5,53C 108.786,55.8316 108.786,58.6649 107.5,61.5 Z M 98.5,54.5 C 100.527,54.3379 102.527,54.5045 104.5,55C 105.833,56.3333 105.833,57.6667 104.5,59C 102.527,59.4955 100.527,59.6621 98.5,59.5C 98.5,57.8333 98.5,56.1667 98.5,54.5 Z"/></g>
<g><path style="opacity:0.91" fill="#747678" d="M 128.5,61.5 C 127.5,61.5 126.5,61.5 125.5,61.5C 125.214,59.0673 124.548,59.0673 123.5,61.5C 120.167,61.5 116.833,61.5 113.5,61.5C 113.167,58.8333 112.833,58.8333 112.5,61.5C 111.5,61.5 110.5,61.5 109.5,61.5C 109.5,58.5 109.5,55.5 109.5,52.5C 111.124,52.3601 112.29,53.0267 113,54.5C 114.353,53.2958 116.019,52.6292 118,52.5C 119.5,52.8333 121,53.1667 122.5,53.5C 120.535,54.2922 118.535,54.9588 116.5,55.5C 115.261,57.0072 115.595,58.1739 117.5,59C 118.5,59.6667 119.5,59.6667 120.5,59C 119.027,58.2904 118.36,57.1238 118.5,55.5C 120.833,55.5 123.167,55.5 125.5,55.5C 125.5,54.5 125.5,53.5 125.5,52.5C 126.5,52.5 127.5,52.5 128.5,52.5C 128.5,55.5 128.5,58.5 128.5,61.5 Z"/></g>
<g><path style="opacity:0.935" fill="#6b6c6e" d="M 141.5,57.5 C 146.833,57.5 152.167,57.5 157.5,57.5C 160.162,59.2681 163.162,59.9347 166.5,59.5C 166.5,60.1667 166.5,60.8333 166.5,61.5C 163.167,61.5 159.833,61.5 156.5,61.5C 155.452,59.0673 154.786,59.0673 154.5,61.5C 153.5,61.5 152.5,61.5 151.5,61.5C 151.5,60.5 151.5,59.5 151.5,58.5C 149.167,58.5 146.833,58.5 144.5,58.5C 144.5,59.5 144.5,60.5 144.5,61.5C 143.5,61.5 142.5,61.5 141.5,61.5C 141.5,60.1667 141.5,58.8333 141.5,57.5 Z"/></g>
</svg>
