<?xml version="1.0" standalone="no"?>
<!DOCTYPE svg PUBLIC "-//W3C//DTD SVG 20010904//EN"
 "http://www.w3.org/TR/2001/REC-SVG-20010904/DTD/svg10.dtd">
<svg version="1.0" xmlns="http://www.w3.org/2000/svg"
 width="7001.000000pt" height="3501.000000pt" viewBox="0 0 7001.000000 3501.000000"
 preserveAspectRatio="xMidYMid meet">

<g transform="translate(0.000000,3501.000000) scale(0.100000,-0.100000)"
fill="#000000" stroke="none">
<path d="M0 17505 l0 -17505 35005 0 35005 0 0 17505 0 17505 -35005 0 -35005
0 0 -17505z m27980 2835 l0 -4860 2615 0 2615 0 0 -225 0 -225 -2835 0 -2835
0 0 5085 0 5085 220 0 220 0 0 -4860z m2888 4850 c579 -34 1091 -255 1505
-650 373 -356 613 -805 703 -1314 62 -354 30 -772 -86 -1126 -48 -145 -185
-430 -262 -545 -146 -219 -364 -454 -551 -595 -65 -49 -94 -76 -85 -81 7 -4
40 -12 73 -19 150 -31 353 -103 519 -186 680 -338 1152 -969 1288 -1719 21
-117 23 -158 22 -405 0 -256 -2 -285 -27 -411 -73 -376 -212 -691 -440 -999
-90 -122 -344 -375 -467 -466 -351 -260 -727 -410 -1146 -459 -109 -13 -352
-15 -1616 -15 l-1488 0 0 220 0 220 1448 0 c951 0 1486 4 1558 11 681 66 1260
470 1555 1084 129 268 189 533 189 827 -1 847 -570 1600 -1389 1838 -257 75
-393 82 -1561 78 l-945 -3 -3 -322 -2 -323 -220 0 -220 0 0 865 0 865 220 0
220 0 0 -320 0 -320 609 0 c487 0 633 3 725 15 750 98 1372 630 1592 1360 57
189 69 281 69 545 -1 227 -3 254 -27 370 -177 827 -842 1435 -1673 1530 -56 6
-480 10 -1117 10 l-1028 0 0 225 0 225 943 0 c518 0 1020 -5 1115 -10z m28205
-5333 c-14 -26 -23 18 -22 111 l2 107 12 -105 c7 -58 10 -108 8 -113z"/>
</g>
</svg>
